<svg class="icon" viewBox="0 0 1024 1024" xmlns="http://www.w3.org/2000/svg" width="200" height="200"><defs><style/></defs><path d="M816.64 71.68H207.36c-48.128 0-87.04 38.912-87.04 87.04v707.072c0 48.128 38.912 87.04 87.04 87.04h609.28c48.128 0 87.04-38.912 87.04-87.04V158.72c0-48.128-39.424-87.04-87.04-87.04zm20.48 794.112c0 11.264-9.216 20.48-20.48 20.48H207.36c-11.264 0-20.48-9.216-20.48-20.48V158.72c0-11.264 9.216-20.48 20.48-20.48h609.28c11.264 0 20.48 9.216 20.48 20.48v707.072z" fill="#3E3A39"/><path d="M716.8 704H307.2c-18.432 0-33.28 14.848-33.28 33.28s14.848 33.28 33.28 33.28h409.6c18.432 0 33.28-14.848 33.28-33.28S735.232 704 716.8 704zm0-156.16H307.2c-18.432 0-33.28 14.848-33.28 33.28s14.848 33.28 33.28 33.28h409.6c18.432 0 33.28-14.848 33.28-33.28s-14.848-33.28-33.28-33.28z" fill="#3E3A39"/><path d="M412.672 389.12h198.144c18.432 0 33.28-14.848 33.28-33.28s-14.848-33.28-33.28-33.28H412.672c-18.432 0-33.28 14.848-33.28 33.28s14.848 33.28 33.28 33.28z" fill="#FA7268"/></svg>