<svg class="icon" viewBox="0 0 1024 1024" xmlns="http://www.w3.org/2000/svg" width="128" height="128"><defs><style>@font-face{font-family:element-icons;src:url(chrome-extension://dkbiiofameebehokbgjmdcholafphbnl/fonts/element-icons.woff) format(&quot;woff&quot;),url(&quot;chrome-extension://dkbiiofameebehokbgjmdcholafphbnl/fonts/element-icons.ttf &quot;) format(&quot;truetype&quot;)}</style></defs><path d="M0 896V768a128 128 0 01128-128h768a128 128 0 01128 128v128a128 128 0 01-128 128H128A128 128 0 010 896zm931.2-98.56a64 64 0 00-64-64H156.8a64 64 0 00-64 64v69.12a64 64 0 0064 64h710.4a64 64 0 0064-64zM531.2 206.08h160q48 0 48 48t-48 48h-160q-48 0-48-48t48-48zM531.2 431.36h160q48 0 48 48t-48 48h-160q-48 0-48-48t48-48z"/><path d="M240 784h32q48 0 48 48t-48 48h-32q-48 0-48-48t48-48zM291.2 733.44V128a128 128 0 01128-128h384a128 128 0 01128 128v605.44zm546.56-576a64 64 0 00-64-64H448a64 64 0 00-64 64V640h453.76zM250.24 314.88h40.32v-93.44H220.8a128 128 0 00-128 128v384h197.76V640H186.24V378.88a64 64 0 0164-64z"/></svg>