<?xml version="1.0" standalone="no"?><!DOCTYPE svg PUBLIC "-//W3C//DTD SVG 1.1//EN" "http://www.w3.org/Graphics/SVG/1.1/DTD/svg11.dtd"><svg t="1628153290047" class="icon" viewBox="0 0 1024 1024" version="1.1" xmlns="http://www.w3.org/2000/svg" p-id="8007" xmlns:xlink="http://www.w3.org/1999/xlink" width="128" height="128"><defs><style type="text/css">@font-face { font-family: element-icons; src: url("chrome-extension://dkbiiofameebehokbgjmdcholafphbnl/fonts/element-icons.woff") format("woff"), url("chrome-extension://dkbiiofameebehokbgjmdcholafphbnl/fonts/element-icons.ttf ") format("truetype"); }
</style></defs><path d="M0 896v-128a128 128 0 0 1 128-128h768a128 128 0 0 1 128 128v128a128 128 0 0 1-128 128H128a128 128 0 0 1-128-128z m931.2-98.56a64 64 0 0 0-64-64H156.8a64 64 0 0 0-64 64v69.12a64 64 0 0 0 64 64h710.4a64 64 0 0 0 64-64z" p-id="8008"></path><path d="M483.2 206.08m48 0l160 0q48 0 48 48l0 0q0 48-48 48l-160 0q-48 0-48-48l0 0q0-48 48-48Z" p-id="8009"></path><path d="M483.2 431.36m48 0l160 0q48 0 48 48l0 0q0 48-48 48l-160 0q-48 0-48-48l0 0q0-48 48-48Z" p-id="8010"></path><path d="M192 784m48 0l32 0q48 0 48 48l0 0q0 48-48 48l-32 0q-48 0-48-48l0 0q0-48 48-48Z" p-id="8011"></path><path d="M291.2 733.44V128a128 128 0 0 1 128-128h384a128 128 0 0 1 128 128v605.44z m546.56-576a64 64 0 0 0-64-64H448a64 64 0 0 0-64 64V640h453.76zM250.24 314.88h40.32V221.44H220.8a128 128 0 0 0-128 128v384h197.76V640H186.24V378.88a64 64 0 0 1 64-64z" p-id="8012"></path></svg>