<?xml version="1.0" standalone="no"?><!DOCTYPE svg PUBLIC "-//W3C//DTD SVG 1.1//EN" "http://www.w3.org/Graphics/SVG/1.1/DTD/svg11.dtd"><svg t="1627634977110" class="icon" viewBox="0 0 1024 1024" version="1.1" xmlns="http://www.w3.org/2000/svg" p-id="5325" xmlns:xlink="http://www.w3.org/1999/xlink" width="128" height="128"><defs><style type="text/css">@font-face { font-family: feedback-iconfont; src: url("//at.alicdn.com/t/font_1031158_1uhr8ri0pk5.eot?#iefix") format("embedded-opentype"), url("//at.alicdn.com/t/font_1031158_1uhr8ri0pk5.woff2") format("woff2"), url("//at.alicdn.com/t/font_1031158_1uhr8ri0pk5.woff") format("woff"), url("//at.alicdn.com/t/font_1031158_1uhr8ri0pk5.ttf") format("truetype"), url("//at.alicdn.com/t/font_1031158_1uhr8ri0pk5.svg#iconfont") format("svg"); }
</style></defs><path d="M544 522.666667c0-8.533333-4.266667-17.066667-10.666667-23.466667L192 189.866667c-12.8-12.8-34.133333-10.666667-44.8 2.133333-12.8 12.8-10.666667 34.133333 2.133333 44.8l315.733334 285.866667L149.333333 808.533333c-12.8 12.8-14.933333 32-2.133333 44.8 6.4 6.4 14.933333 10.666667 23.466667 10.666667 8.533333 0 14.933333-2.133333 21.333333-8.533333l341.333333-309.333334c6.4-6.4 10.666667-14.933333 10.666667-23.466666z" p-id="5326"></path><path d="M864 499.2l-341.333333-309.333333c-12.8-12.8-34.133333-10.666667-44.8 2.133333-12.8 12.8-10.666667 34.133333 2.133333 44.8l315.733333 285.866667-315.733333 285.866666c-12.8 12.8-14.933333 32-2.133333 44.8 6.4 6.4 14.933333 10.666667 23.466666 10.666667 8.533333 0 14.933333-2.133333 21.333334-8.533333l341.333333-309.333334c6.4-6.4 10.666667-14.933333 10.666667-23.466666 0-8.533333-4.266667-17.066667-10.666667-23.466667z" p-id="5327"></path></svg>