<svg class="icon" viewBox="0 0 1024 1024" xmlns="http://www.w3.org/2000/svg" width="128" height="128"><defs><style>@font-face{font-family:element-icons;src:url(chrome-extension://dkbiiofameebehokbgjmdcholafphbnl/fonts/element-icons.woff) format(&quot;woff&quot;),url(&quot;chrome-extension://dkbiiofameebehokbgjmdcholafphbnl/fonts/element-icons.ttf &quot;) format(&quot;truetype&quot;)}</style></defs><path d="M767.877 95.012h-527.12c-72.673 0-131.778 58.102-131.778 129.495v597.606c0 71.388 59.1 129.495 131.779 129.495h527.114c72.648 0 131.779-58.107 131.779-129.495V224.507c.005-71.393-59.126-129.495-131.774-129.495zM294.461 301.885h227.236c16.794 0 30.403 13.353 30.403 29.886 0 16.47-13.61 29.86-30.403 29.86H294.461c-16.788 0-30.402-13.384-30.402-29.86 0-16.533 13.609-29.886 30.402-29.886zm429.952 453.12H294.461c-16.788 0-30.402-13.383-30.402-29.89 0-16.502 13.609-29.89 30.402-29.89H724.42c16.793 0 30.438 13.388 30.438 29.89 0 16.507-13.645 29.89-30.444 29.89zm0-196.674H294.461c-16.788 0-30.402-13.379-30.402-29.886s13.609-29.89 30.402-29.89H724.42c16.793 0 30.438 13.384 30.438 29.89s-13.645 29.886-30.444 29.886z"/></svg>