<?xml version="1.0" standalone="no"?><!DOCTYPE svg PUBLIC "-//W3C//DTD SVG 1.1//EN" "http://www.w3.org/Graphics/SVG/1.1/DTD/svg11.dtd"><svg t="1626849036622" class="icon" viewBox="0 0 1024 1024" version="1.1" xmlns="http://www.w3.org/2000/svg" p-id="21615" width="128" height="128" xmlns:xlink="http://www.w3.org/1999/xlink"><defs><style type="text/css"></style></defs><path d="M855.04 21.504H471.04c-214.016 0-388.096 174.08-388.096 388.096v504.32c0 50.176 40.96 91.136 91.136 91.136h384c214.016 0 388.096-174.08 388.096-388.096V112.128c0-50.176-40.96-90.624-91.136-90.624z m29.696 594.944c0 180.224-146.432 326.656-326.656 326.656H174.08c-16.384 0-29.696-13.312-29.696-29.696V409.088c0-180.224 146.432-326.656 326.656-326.656h384c16.384 0 29.696 13.312 29.696 29.696v504.32z" fill="#333333" p-id="21616"></path><path d="M314.88 415.744h144.896c16.896 0 30.72-13.824 30.72-30.72s-13.824-30.72-30.72-30.72H314.88c-16.896 0-30.72 13.824-30.72 30.72s13.824 30.72 30.72 30.72zM659.456 610.304H314.88c-16.896 0-30.72 13.824-30.72 30.72s13.824 30.72 30.72 30.72h344.576c16.896 0 30.72-13.824 30.72-30.72s-13.824-30.72-30.72-30.72z" fill="#333333" p-id="21617"></path></svg>