<?xml version="1.0" standalone="no"?><!DOCTYPE svg PUBLIC "-//W3C//DTD SVG 1.1//EN" "http://www.w3.org/Graphics/SVG/1.1/DTD/svg11.dtd"><svg t="1628153249444" class="icon" viewBox="0 0 1024 1024" version="1.1" xmlns="http://www.w3.org/2000/svg" p-id="6338" xmlns:xlink="http://www.w3.org/1999/xlink" width="128" height="128"><defs><style type="text/css">@font-face { font-family: element-icons; src: url("chrome-extension://dkbiiofameebehokbgjmdcholafphbnl/fonts/element-icons.woff") format("woff"), url("chrome-extension://dkbiiofameebehokbgjmdcholafphbnl/fonts/element-icons.ttf ") format("truetype"); }
</style></defs><path d="M767.87712 95.01184 240.75776 95.01184c-72.67328 0-131.77856 58.10176-131.77856 129.49504l0 597.6064c0 71.38816 59.10016 129.49504 131.77856 129.49504l527.11424 0c72.64768 0 131.77856-58.10688 131.77856-129.49504L899.65056 224.50688C899.65568 153.1136 840.5248 95.01184 767.87712 95.01184zM294.46144 301.88544l227.23584 0c16.7936 0 30.40256 13.35296 30.40256 29.88544 0 16.47104-13.60896 29.85984-30.40256 29.85984L294.46144 361.63072c-16.78848 0-30.40256-13.38368-30.40256-29.85984C264.05888 315.2384 277.66784 301.88544 294.46144 301.88544zM724.41344 755.00544 294.46144 755.00544c-16.78848 0-30.40256-13.38368-30.40256-29.89056 0-16.50176 13.60896-29.89056 30.40256-29.89056l429.95712 0c16.7936 0 30.4384 13.3888 30.4384 29.89056C754.85696 741.62176 741.21216 755.00544 724.41344 755.00544zM724.41344 558.33088 294.46144 558.33088c-16.78848 0-30.40256-13.37856-30.40256-29.88544s13.60896-29.89056 30.40256-29.89056l429.95712 0c16.7936 0 30.4384 13.38368 30.4384 29.89056S741.21216 558.33088 724.41344 558.33088z" p-id="6339"></path></svg>