<svg class="icon" viewBox="0 0 1024 1024" xmlns="http://www.w3.org/2000/svg" width="200" height="200"><defs><style/></defs><path d="M857.427 644.294a32.038 32.038 0 0032.135-31.942v-293.44l-9.677-9.395c-23.002-22.336-65.03-64.435-109.53-109.005-50.483-50.56-102.688-102.848-128.448-127.565L632.57 64H275.84A141.184 141.184 0 00134.4 204.589v614.816A141.19 141.19 0 00275.84 960h472.32A141.184 141.184 0 00889.6 819.392v-34.56a32.134 32.134 0 00-64.262 0v34.56a77.037 77.037 0 01-77.178 76.73H275.84a77.03 77.03 0 01-77.171-76.717V204.589a77.03 77.03 0 0177.171-76.717h296.134v175.68a68.442 68.442 0 0068.57 68.16h184.755v240.64a32.038 32.038 0 0032.128 31.942zM636.243 303.552v-146.42c25.677 25.46 57.408 57.242 88.506 88.385 22.054 22.093 43.411 43.481 62.291 62.304H640.544a4.294 4.294 0 01-4.3-4.269z" fill="#FB3F50"/><path d="M497.606 517.965H320.282a31.814 31.814 0 110-63.623h177.324a31.814 31.814 0 110 63.623zm174.08 141.024H320.282a31.814 31.814 0 110-63.616h351.424a31.814 31.814 0 110 63.616zm0 141.03H320.282a31.814 31.814 0 110-63.622h351.424a31.814 31.814 0 110 63.603z" fill="#FFCA1E"/></svg>