<svg class="icon" viewBox="0 0 1024 1024" xmlns="http://www.w3.org/2000/svg" width="128" height="128"><defs><style>@font-face{font-family:element-icons;src:url(chrome-extension://dkbiiofameebehokbgjmdcholafphbnl/fonts/element-icons.woff) format(&quot;woff&quot;),url(&quot;chrome-extension://dkbiiofameebehokbgjmdcholafphbnl/fonts/element-icons.ttf &quot;) format(&quot;truetype&quot;)}</style></defs><path d="M610.462 500.185l256-257.97c11.815-11.815 11.815-29.538 0-41.353l-39.385-41.354c-11.815-11.816-29.539-11.816-41.354 0l-257.97 257.969c-7.876 7.877-19.691 7.877-27.568 0l-257.97-259.939c-11.815-11.815-29.538-11.815-41.353 0l-41.354 41.354c-11.816 11.816-11.816 29.539 0 41.354l257.969 257.97c7.877 7.876 7.877 19.692 0 27.569L157.538 785.723c-11.815 11.815-11.815 29.539 0 41.354l41.354 41.354c11.816 11.815 29.539 11.815 41.354 0l257.97-257.97c7.876-7.876 19.692-7.876 27.569 0l257.969 257.97c11.815 11.815 29.538 11.815 41.354 0l41.354-41.354c11.815-11.815 11.815-29.539 0-41.354l-256-257.97c-7.877-7.876-7.877-19.691 0-27.568z"/></svg>