<svg class="icon" viewBox="0 0 1024 1024" xmlns="http://www.w3.org/2000/svg" width="250" height="250"><defs><style/></defs><path d="M512 451.66L403.354 343.015a42.607 42.607 0 00-60.305.035 42.667 42.667 0 00-.035 60.305L451.661 512 343.014 620.646a42.607 42.607 0 00.035 60.305 42.667 42.667 0 0060.305.035L512 572.339l108.646 108.647a42.607 42.607 0 0060.305-.035 42.667 42.667 0 00.035-60.305L572.339 512l108.647-108.646a42.607 42.607 0 00-.035-60.305 42.667 42.667 0 00-60.305-.035L512 451.661zm0 572.34C229.666 1024 0 794.334 0 512S229.666 0 512 0s512 229.666 512 512-229.666 512-512 512zm0-938.667C276.736 85.333 85.333 276.736 85.333 512S276.736 938.667 512 938.667 938.667 747.264 938.667 512 747.264 85.333 512 85.333z" fill="#4990EE"/></svg>