<?xml version="1.0" standalone="no"?><!DOCTYPE svg PUBLIC "-//W3C//DTD SVG 1.1//EN" "http://www.w3.org/Graphics/SVG/1.1/DTD/svg11.dtd"><svg t="1613561492557" class="icon" viewBox="0 0 1024 1024" version="1.1" xmlns="http://www.w3.org/2000/svg" p-id="7422" xmlns:xlink="http://www.w3.org/1999/xlink" width="200" height="200"><defs><style type="text/css"></style></defs><path d="M512 956.373333a85.333333 85.333333 0 0 1-66.133333-31.573333l-80-98.346667A42.666667 42.666667 0 0 0 332.8 810.666667H170.666667a128 128 0 0 1-128-128V213.333333a128 128 0 0 1 128-128h682.666666a128 128 0 0 1 128 128v469.333334a128 128 0 0 1-128 128h-162.133333a42.666667 42.666667 0 0 0-33.066667 15.786666l-80 98.346667a85.333333 85.333333 0 0 1-66.133333 31.573333zM170.666667 170.666667a42.666667 42.666667 0 0 0-42.666667 42.666666v469.333334a42.666667 42.666667 0 0 0 42.666667 42.666666h162.133333a128 128 0 0 1 99.2 47.36L512 871.04l80-98.346667A128 128 0 0 1 691.2 725.333333H853.333333a42.666667 42.666667 0 0 0 42.666667-42.666666V213.333333a42.666667 42.666667 0 0 0-42.666667-42.666666z" fill="#4E4E4E" p-id="7423"></path><path d="M725.333333 373.333333H298.666667a42.666667 42.666667 0 0 1 0-85.333333h426.666666a42.666667 42.666667 0 0 1 0 85.333333zM725.333333 608H298.666667a42.666667 42.666667 0 0 1 0-85.333333h426.666666a42.666667 42.666667 0 0 1 0 85.333333z" fill="#FF9813" p-id="7424"></path></svg>