<svg class="icon" width="200" height="200" viewBox="0 0 1024 1024" xmlns="http://www.w3.org/2000/svg"><path d="M512 0C226.743 0 0 197.486 0 446.171 0 585.143 73.143 716.8 190.171 797.257V1024l226.743-138.971c29.257 7.314 65.829 7.314 95.086 7.314 285.257 0 512-197.486 512-446.172C1024 197.486 797.257 0 512 0zM256 512c-36.571 0-65.829-29.257-65.829-65.829S219.43 380.343 256 380.343s65.829 29.257 65.829 65.828S292.57 512 256 512zm256 0c-36.571 0-65.829-29.257-65.829-65.829S475.43 380.343 512 380.343s65.829 29.257 65.829 65.828S548.57 512 512 512zm256 0c-36.571 0-65.829-29.257-65.829-65.829S731.43 380.343 768 380.343s65.829 29.257 65.829 65.828S804.57 512 768 512z"/></svg>