<svg class="icon" viewBox="0 0 1024 1024" xmlns="http://www.w3.org/2000/svg" width="200" height="200"><defs><style/></defs><path d="M512 956.373a85.333 85.333 0 01-66.133-31.573l-80-98.347a42.667 42.667 0 00-33.067-15.786H170.667a128 128 0 01-128-128V213.333a128 128 0 01128-128h682.666a128 128 0 01128 128v469.334a128 128 0 01-128 128H691.2a42.667 42.667 0 00-33.067 15.786l-80 98.347A85.333 85.333 0 01512 956.373zM170.667 170.667A42.667 42.667 0 00128 213.333v469.334a42.667 42.667 0 0042.667 42.666H332.8a128 128 0 0199.2 47.36l80 98.347 80-98.347a128 128 0 0199.2-47.36h162.133A42.667 42.667 0 00896 682.667V213.333a42.667 42.667 0 00-42.667-42.666z" fill="#4E4E4E"/><path d="M725.333 373.333H298.667a42.667 42.667 0 010-85.333h426.666a42.667 42.667 0 010 85.333zm0 234.667H298.667a42.667 42.667 0 010-85.333h426.666a42.667 42.667 0 010 85.333z" fill="#FF9813"/></svg>