<?xml version="1.0" standalone="no"?><!DOCTYPE svg PUBLIC "-//W3C//DTD SVG 1.1//EN" "http://www.w3.org/Graphics/SVG/1.1/DTD/svg11.dtd"><svg t="1626496678771" class="icon" viewBox="0 0 1024 1024" version="1.1" xmlns="http://www.w3.org/2000/svg" p-id="16202" width="128" height="128" xmlns:xlink="http://www.w3.org/1999/xlink"><defs><style type="text/css"></style></defs><path d="M157.568 751.296c-11.008-18.688-18.218667-31.221333-21.802667-37.909333A424.885333 424.885333 0 0 1 85.333333 512C85.333333 276.362667 276.362667 85.333333 512 85.333333s426.666667 191.029333 426.666667 426.666667-191.029333 426.666667-426.666667 426.666667a424.778667 424.778667 0 0 1-219.125333-60.501334 2786.56 2786.56 0 0 0-20.053334-11.765333l-104.405333 28.48c-23.893333 6.506667-45.802667-15.413333-39.285333-39.296l28.437333-104.288z m65.301333 3.786667l-17.258666 63.306666 63.306666-17.258666a32 32 0 0 1 24.522667 3.210666 4515.84 4515.84 0 0 1 32.352 18.944A360.789333 360.789333 0 0 0 512 874.666667c200.298667 0 362.666667-162.368 362.666667-362.666667S712.298667 149.333333 512 149.333333 149.333333 311.701333 149.333333 512c0 60.586667 14.848 118.954667 42.826667 171.136 3.712 6.912 12.928 22.826667 27.370667 47.232a32 32 0 0 1 3.338666 24.714667z m145.994667-70.773334a32 32 0 1 1 40.917333-49.205333A159.189333 159.189333 0 0 0 512 672c37.888 0 73.674667-13.173333 102.186667-36.885333a32 32 0 0 1 40.917333 49.216A223.178667 223.178667 0 0 1 512 736a223.178667 223.178667 0 0 1-143.136-51.690667z" p-id="16203"></path></svg>