<svg class="icon" viewBox="0 0 1024 1024" xmlns="http://www.w3.org/2000/svg" width="128" height="128"><defs><style/></defs><path d="M157.568 751.296c-11.008-18.688-18.219-31.221-21.803-37.91A424.885 424.885 0 0185.333 512c0-235.637 191.03-426.667 426.667-426.667S938.667 276.363 938.667 512 747.637 938.667 512 938.667a424.779 424.779 0 01-219.125-60.502A2786.56 2786.56 0 00272.82 866.4l-104.405 28.48c-23.893 6.507-45.803-15.413-39.285-39.296l28.437-104.288zm65.301 3.787l-17.258 63.306 63.306-17.258a32 32 0 0124.523 3.21 4515.84 4515.84 0 0132.352 18.944A360.79 360.79 0 00512 874.667c200.299 0 362.667-162.368 362.667-362.667S712.299 149.333 512 149.333 149.333 311.701 149.333 512c0 60.587 14.848 118.955 42.827 171.136 3.712 6.912 12.928 22.827 27.37 47.232a32 32 0 013.34 24.715zm145.995-70.774a32 32 0 1140.917-49.205A159.19 159.19 0 00512 672c37.888 0 73.675-13.173 102.187-36.885a32 32 0 0140.917 49.216A223.179 223.179 0 01512 736a223.179 223.179 0 01-143.136-51.69z"/></svg>