<?xml version="1.0" standalone="no"?><!DOCTYPE svg PUBLIC "-//W3C//DTD SVG 1.1//EN" "http://www.w3.org/Graphics/SVG/1.1/DTD/svg11.dtd"><svg t="1613640744102" class="icon" viewBox="0 0 1024 1024" version="1.1" xmlns="http://www.w3.org/2000/svg" p-id="8788" width="200" height="200" xmlns:xlink="http://www.w3.org/1999/xlink"><defs><style type="text/css"></style></defs><path d="M460.8 512h102.4v307.2H460.8z" fill="#00A2FF" p-id="8789"></path><path d="M929.6 153.6H768V51.2C768 23 745 0 716.8 0h-51.2c-28.2 0-51.2 23-51.2 51.2v102.4H409.6V51.2c0-28.2-23-51.2-51.2-51.2h-51.2C279 0 256 23 256 51.2v102.4H94.4C42.5 153.6 0 196.1 0 248v681.6c0 51.9 42.5 94.4 94.4 94.4h835.2c51.9 0 94.4-42.5 94.4-94.4V248c0-51.9-42.5-94.4-94.4-94.4z m-8 703.2c0 35.6-29.1 64.8-64.8 64.8H167.2c-35.6 0-64.8-29.1-64.8-64.8V474.4c0-35.6 29.1-64.8 64.8-64.8h689.7c35.6 0 64.8 29.1 64.8 64.8v382.4z" fill="#00A2FF" p-id="8790"></path></svg>