<svg class="icon" viewBox="0 0 1024 1024" xmlns="http://www.w3.org/2000/svg" width="128" height="128"><defs><style/></defs><path d="M512 192c179.2 0 320 140.8 320 320S691.2 832 512 832 192 691.2 192 512s140.8-320 320-320m0-64c-211.2 0-384 172.8-384 384s172.8 384 384 384 384-172.8 384-384-172.8-384-384-384z"/><path d="M640 672c-6.4 0-19.2 0-25.6-6.4l-128-128c0-6.4-6.4-19.2-6.4-25.6V288c0-19.2 12.8-32 32-32s32 12.8 32 32v211.2l121.6 121.6c12.8 12.8 12.8 32 0 44.8-6.4 6.4-19.2 6.4-25.6 6.4z"/></svg>