<svg class="icon" viewBox="0 0 1024 1024" xmlns="http://www.w3.org/2000/svg" width="200" height="200"><defs><style/></defs><path d="M0 512a512 512 0 101024 0A512 512 0 100 512z" fill="#A7FCD0"/><path d="M227.2 702.4c0 35.2 28.8 64 64 64h490.4c35.2 0 64-28.8 64-64v-336c0-35.2-28.8-64-64-64h-232c-20 0-46.4-14.4-57.6-32-12-17.6-39.2-32-60.8-32H292c-35.2 0-64 28.8-64 64v400z" fill="#F4B10B"/><path d="M776 776H296c-40 0-72-32-72-72V296c0-40 32-72 72-72h112c38.4 0 78.4 17.6 91.2 40 9.6 17.6 44.8 32 76.8 32h200c40 0 72 32 72 72v336c0 40-32 72-72 72zM296 240c-31.2 0-56 24.8-56 56v408c0 31.2 24.8 56 56 56h480c31.2 0 56-24.8 56-56V368c0-31.2-24.8-56-56-56H576c-38.4 0-78.4-17.6-91.2-40-9.6-17.6-44.8-32-76.8-32H296z" fill="#663210"/><path d="M764 409.6c-8.8-34.4-44-62.4-79.2-62.4H185.6c-35.2 0-56.8 28-48.8 62.4L210.4 704c8.8 34.4 44 62.4 79.2 62.4H788c35.2 0 56.8-28 48.8-62.4L764 409.6z" fill="#FBD000"/><path d="M544 536H368c-4 0-8-3.2-8-8s3.2-8 8-8h176c4 0 8 3.2 8 8s-3.2 8-8 8zm32 40h-48c-4.8 0-8-3.2-8-8s4-8 8-8h48c4.8 0 8 3.2 8 8s-4 8-8 8z" fill="#663210"/><path d="M836 704l-18.4-66.4C826.4 672 804 704 768.8 704H270.4c-29.6 0-60-24.8-73.6-51.2l12.8 51.2c8.8 34.4 44 62.4 79.2 62.4h498.4c35.2 0 56.8-28 48.8-62.4z" fill="#F4B10B"/><path d="M480 576H376c-4.8 0-8-3.2-8-8s4-8 8-8h104c4.8 0 8 3.2 8 8s-4 8-8 8z" fill="#663210"/><path d="M789.6 776H290.4c-38.4 0-76.8-30.4-85.6-68.8L137.6 408c-4-19.2-.8-36.8 10.4-51.2 11.2-13.6 27.2-21.6 47.2-21.6h492c38.4 0 76.8 30.4 86.4 68l72.8 300c4.8 19.2 1.6 36.8-9.6 50.4-11.2 15.2-27.2 22.4-47.2 22.4zM195.2 352c-14.4 0-26.4 5.6-34.4 15.2s-10.4 23.2-7.2 37.6L220 704c7.2 30.4 38.4 56 69.6 56h500c14.4 0 26.4-5.6 34.4-15.2s9.6-23.2 6.4-36.8l-72.8-300c-7.2-30.4-40-56-71.2-56H195.2z" fill="#663210"/><path d="M784 660c-3.2 0-6.4-2.4-8-5.6 0-1.6-44.8-166.4-57.6-217.6-11.2-44.8-30.4-44.8-56-44.8H393.6c-4 0-8-3.2-8-8s3.2-8 8-8h268.8c27.2 0 57.6 0 72 56.8C747.2 484 792 648 792 650.4c.8 4-1.6 8.8-5.6 9.6H784zM312 392H207.2c-4.8 0-8-3.2-8-8s4-8 8-8H312c4.8 0 8 3.2 8 8s-4 8-8 8zm176 552c-17.6 0-32-14.4-32-32s14.4-32 32-32 32 14.4 32 32-14.4 32-32 32zm0-48.8c-9.6 0-16.8 8-16.8 16.8 0 9.6 8 16.8 16.8 16.8 9.6 0 16.8-8 16.8-16.8 0-9.6-7.2-16.8-16.8-16.8zM384 144c-17.6 0-32-14.4-32-32s14.4-32 32-32 32 14.4 32 32-14.4 32-32 32zm0-48.8c-9.6 0-16.8 8-16.8 16.8 0 9.6 8 16.8 16.8 16.8 9.6 0 16.8-8 16.8-16.8 0-9.6-8-16.8-16.8-16.8zm318.4 103.2c0-3.2-3.2-6.4-8-7.2l-14.4-1.6c-4-.8-8.8-4.8-8.8-8.8l-2.4-15.2c-.8-4-4-8-7.2-8s-6.4 3.2-7.2 8l-2.4 15.2c-.8 4-4.8 8.8-8.8 8.8L628 192c-4 .8-8 4-8 7.2s3.2 6.4 8 7.2l15.2 2.4c4 .8 8.8 4.8 8.8 8.8l2.4 15.2c.8 4 4 8 7.2 8s6.4-3.2 6.4-8l2.4-16.8c.8-4 4.8-8 8.8-8.8l14.4-.8c5.6-2.4 8.8-4.8 8.8-8zm-560 424c0-3.2-3.2-6.4-8-7.2l-14.4-1.6c-4-.8-8.8-4.8-8.8-8.8l-2.4-15.2c-.8-4-4-8-7.2-8s-6.4 3.2-7.2 8L92 604.8c-.8 4-4.8 8.8-8.8 8.8L68 616c-4 .8-8 4-8 7.2s3.2 6.4 8 7.2l15.2 2.4c4 .8 8.8 4.8 8.8 8.8l2.4 15.2c.8 4 4 8 7.2 8s6.4-3.2 6.4-8l2.4-16.8c.8-4 4.8-8 8.8-8.8l14.4-.8c5.6-2.4 8.8-4.8 8.8-8zm836-104c0-3.2-3.2-6.4-8-7.2l-15.2-2.4c-4-.8-8.8-4.8-8.8-8.8l-2.4-15.2c-.8-4-4-8-7.2-8s-6.4 3.2-7.2 8l-2.4 15.2c-.8 4-4.8 8.8-8.8 8.8l-15.2 2.4c-4 .8-8 4-8 7.2s3.2 6.4 8 7.2l15.2 2.4c4 .8 8.8 4.8 8.8 8.8l2.4 15.2c.8 4 4 8 7.2 8s6.4-3.2 6.4-8l2.4-16.8c.8-4 4.8-8 8.8-8.8l14.4-.8c6.4-1.6 9.6-4 9.6-7.2z" fill="#FFF"/></svg>