<svg class="icon" viewBox="0 0 1024 1024" xmlns="http://www.w3.org/2000/svg" width="200" height="200"><defs><style/></defs><path d="M659.27 829.14L503.82 673.7H822l19.48-48.08H625.65c1.6-1.56 3.11-3.08 4.57-4.54l1.7-1.7a81.49 81.49 0 0014.71-20.23l.67-1.32v-.6l194.12-194.12-20.09-43.32L671 510.11V208.65l-46.39-21v213L368.5 201.52l-42.65 23.35 170.07 133.3H207.36l-20.68 46.4h210.48l-213.65 209 18.15 46.8 155.5-155.5V823.3l46.4 19.19V626.37c1.47 1.66 3 3.3 4.47 4.81L612.38 847l46.89-17.83zM514 671.23c-86 0-155.91-69.94-155.91-155.91S428 359.42 514 359.42s155.9 69.94 155.9 155.9S600 671.23 514 671.23z" fill="#F4B426"/><path d="M514 674.26c-87.61 0-158.88-71.27-158.88-158.87S426.42 356.51 514 356.51s158.9 71.27 158.9 158.88S601.63 674.26 514 674.26zm0-269.12a110.25 110.25 0 10110.27 110.25A110.38 110.38 0 00514 405.14z" fill="#1E7FFE"/><path d="M512.5 903.18a390.07 390.07 0 11152.27-30.75 388.63 388.63 0 01-152.27 30.75zm0-733.45c-188.73 0-342.27 153.54-342.27 342.27S323.77 854.27 512.5 854.27 854.77 700.73 854.77 512 701.23 169.73 512.5 169.73z" fill="#1E7FFE"/></svg>