<svg class="icon" viewBox="0 0 1024 1024" xmlns="http://www.w3.org/2000/svg" width="200" height="200"><defs><style/></defs><path d="M439.808 782.336c0-41.984 33.28-75.264 75.264-75.264s75.264 33.28 75.264 75.264V896h62.976V782.336c0-77.312-60.928-135.68-138.24-138.24-75.776-2.56-135.168 58.88-138.24 138.24V896h62.976V782.336z" fill="#FFBB12"/><path d="M842.24 262.144l-236.544-161.28c-58.88-39.936-136.192-37.888-192.512 6.144L207.36 264.192c-48.128 35.84-77.312 98.304-77.312 165.376v321.024c0 111.104 79.36 201.216 178.176 201.216h131.584V890.88H306.176c-62.976 0-115.2-62.976-115.2-138.24V431.616c0-48.128 20.992-92.16 54.272-117.248L450.56 157.696c18.944-14.848 41.984-20.992 62.976-20.992 18.944 0 39.936 6.144 56.32 16.896l234.496 163.328c35.84 23.04 58.88 69.12 58.88 119.296V752.64c0 75.264-52.224 138.24-115.2 138.24H590.848v60.928h159.744c98.304 0 180.224-90.112 178.176-201.216V434.176c-1.024-69.12-34.304-136.192-86.528-172.032z" fill="#2E77ED"/></svg>