<svg class="icon" viewBox="0 0 1024 1024" xmlns="http://www.w3.org/2000/svg" width="200" height="200"><defs><style/></defs><path d="M509.96 0C228.462 0 0 228.462 0 509.96s228.462 509.96 509.96 509.96 509.96-228.462 509.96-509.96S791.458 0 509.96 0zm0 754.741c-123.41 0-224.382-99.952-224.382-223.363 0 0 0-55.075 16.318-104.031 0 0 19.379 21.418 35.698 31.617 0 0-10.2-82.613 61.195-143.809 0 0 6.12 28.558 28.558 34.678 0 0 22.438-91.793 139.729-83.634 0 0-7.14 92.813 72.414 121.37 0 0 10.2-15.298 17.339-43.856 0 0 78.534 65.275 76.494 188.685 1.02 122.39-99.952 222.343-223.363 222.343z"/><path d="M611.952 467.124c-18.358-18.36-48.956-18.36-68.334 0-18.359 18.358-48.957 18.358-68.335 0-18.359-18.36-48.956-18.36-68.335 0l-21.418 21.418c-18.359 18.358-18.359 48.956 0 68.334l89.753 89.753c18.358 18.359 48.956 18.359 68.335 0l89.753-89.753c18.358-18.358 18.358-48.956 0-68.334l-21.419-21.418z"/></svg>