<svg class="icon" width="200" height="192.84" viewBox="0 0 1062 1024" xmlns="http://www.w3.org/2000/svg"><path d="M117.786 433.024C177.344 235.648 307.84 94.899 546.432 74.829c16.371-1.383 39.398-.128 58.112-3.623 16.166-3.008 35.866-14.297 54.502-21.696 75.648-30.105 242.688-82.841 326.938-18.099 73.19 56.243 59.712 193.05 14.528 282.215 36.109 70.45 62.784 168.64 47.232 278.592-211.968 8.46-458.88 1.177-664.794 3.61 6.9 106.162 75.802 187.48 178.01 199 99.904 11.265 168.96-43.366 214.323-104.92h254.285C963.52 873.561 795.584 1016 535.526 997.44c-59.148-4.224-105.19-20.89-156.21-39.795-85.198 45.081-273.729 112.064-348.724 18.086-56.947-71.334-20.352-201.139 10.88-285.824 63.258-171.43 183.68-341.248 301.517-437.798.691-2.931 3.66-3.597 3.635-7.232-93.107 45.952-155.866 122.15-228.864 188.147zm893.644-267.738c-3.443-123.11-167.654-111.065-254.31-61.516 96.768 37.504 167.424 100.992 225.229 177.28 12.544-38.708 30.323-70.759 29.056-115.764zM382.963 465.574h403.239c-11.725-251.66-390.58-231.347-403.239 0zM85.094 907.008c20.224 111.424 181.428 79.014 254.285 28.928-95.654-51.84-155.251-139.648-203.43-238.784-22.375 53.594-64.205 136.256-50.855 209.856z"/></svg>