<svg class="icon" viewBox="0 0 1024 1024" xmlns="http://www.w3.org/2000/svg" width="200" height="200"><defs><style/></defs><path d="M755.473 545.649c-1.126-166.08 92.198-170.377 96.393-173.038-52.494-76.746-134.152-88.82-163.213-89.946-69.481-7.06-135.586 40.112-170.889 40.112-35.2 0-89.64-40.215-147.25-39.191C294.79 284.71 224.9 327.485 185.81 395.328c-78.69 136.609-20.159 338.912 56.588 449.631 37.452 54.234 82.17 115.12 140.906 112.97 56.485-2.25 77.872-36.633 146.227-36.633s87.49 36.634 147.353 35.406c60.783-1.126 99.36-55.258 136.506-109.696 43.08-62.932 60.783-120.748 61.806-123.818-1.33-.614-118.598-66.82-119.826-177.54h.102z"/><path d="M511.83 288.395c0-123.203 99.872-223.178 223.177-223.178 0 123.306-99.975 223.178-223.178 223.178z"/></svg>