<svg class="icon" viewBox="0 0 1024 1024" xmlns="http://www.w3.org/2000/svg" width="250" height="250"><defs><style/></defs><path d="M954.08 318.864l-10.432 12.128a24 24 0 01-33.84 2.544l-98.784-84.944-96.48 97.28 96.576 85.456a24 24 0 012.08 33.872l-10.608 11.984a24 24 0 01-33.872 2.08l-99.312-87.872-75.056 75.664c44.4 52.208 71.328 119.6 71.328 193.232 0 165.2-134.864 299.552-300.576 299.552-165.728 0-300.56-134.352-300.56-299.552 0-165.184 134.832-299.568 300.56-299.568a299.744 299.744 0 01170.752 53.312l11.488 9.536 350.32-353.2a24 24 0 0133.936-.128l11.36 11.264a24 24 0 01.144 33.936l-86.896 87.6 95.328 81.968c10.048 8.656 11.184 23.808 2.544 33.856zm-589.008 96.128c-135.696 0-246.112 110.048-246.112 245.296S229.344 905.6 365.072 905.6c135.712 0 246.16-110.064 246.16-245.312 0-135.248-110.448-245.296-246.16-245.296z" fill="#999"/></svg>