<?xml version="1.0" standalone="no"?><!DOCTYPE svg PUBLIC "-//W3C//DTD SVG 1.1//EN" "http://www.w3.org/Graphics/SVG/1.1/DTD/svg11.dtd"><svg t="1628153307282" class="icon" viewBox="0 0 1024 1024" version="1.1" xmlns="http://www.w3.org/2000/svg" p-id="8848" xmlns:xlink="http://www.w3.org/1999/xlink" width="128" height="128"><defs><style type="text/css">@font-face { font-family: element-icons; src: url("chrome-extension://dkbiiofameebehokbgjmdcholafphbnl/fonts/element-icons.woff") format("woff"), url("chrome-extension://dkbiiofameebehokbgjmdcholafphbnl/fonts/element-icons.ttf ") format("truetype"); }
</style></defs><path d="M953.395784 74.642464l-4.027998-4.041998c-94.147954-94.133954-248.193879-94.133954-342.325833 0L388.93606 288.736359c-94.133954 94.131954-94.133954 248.175879 0 342.309833l4.025998 4.025998c7.831996 7.847996 16.145992 14.923993 24.735988 21.45799l79.847961-79.849961c-9.301995-5.493997-18.125991-12.071994-26.115987-20.05999l-4.041998-4.041998c-51.113975-51.097975-51.113975-134.271934 0-185.389909L685.515915 149.076427c51.115975-51.117975 134.273934-51.117975 185.385909 0l4.041998 4.023998c51.099975 51.115975 51.099975 134.291934 0 185.389909l-98.685952 98.685952c17.131992 42.307979 25.247988 87.399957 24.537988 132.385935l152.603925-152.603925C1047.533739 322.822342 1047.533739 168.780418 953.395784 74.642464zM631.041942 388.93431c-7.831996-7.831996-16.145992-14.921993-24.735988-21.43999l-79.847961 79.831961c9.303995 5.495997 18.125991 12.073994 26.115987 20.06199l4.041998 4.039998c51.115975 51.115975 51.115975 134.271934 0 185.387909L338.486085 874.950073c-51.117975 51.101975-134.275934 51.101975-185.387909 0l-4.041998-4.041998c-51.097975-51.119975-51.097975-134.275934 0-185.387909l98.687952-98.685952c-17.133992-42.305979-25.245988-87.401957-24.537988-132.385935l-152.601925 152.597925c-94.135954 94.131954-94.135954 248.177879 0 342.323833l4.025998 4.031998c94.151954 94.127954 248.191879 94.127954 342.327833 0l218.109894-218.117893c94.133954-94.131954 94.133954-248.193879 0-342.325833L631.041942 388.93431z" p-id="8849"></path></svg>