<svg class="icon" viewBox="0 0 1024 1024" xmlns="http://www.w3.org/2000/svg" width="128" height="128"><defs><style>@font-face{font-family:element-icons;src:url(chrome-extension://dkbiiofameebehokbgjmdcholafphbnl/fonts/element-icons.woff) format(&quot;woff&quot;),url(&quot;chrome-extension://dkbiiofameebehokbgjmdcholafphbnl/fonts/element-icons.ttf &quot;) format(&quot;truetype&quot;)}</style></defs><path d="M953.396 74.642l-4.028-4.042c-94.148-94.133-248.194-94.133-342.326 0L388.936 288.736c-94.134 94.132-94.134 248.176 0 342.31l4.026 4.026c7.832 7.848 16.146 14.924 24.736 21.458l79.848-79.85c-9.302-5.494-18.126-12.072-26.116-20.06l-4.042-4.042c-51.114-51.098-51.114-134.272 0-185.39l218.128-218.112c51.116-51.118 134.274-51.118 185.386 0l4.042 4.024c51.1 51.116 51.1 134.292 0 185.39l-98.686 98.686c17.132 42.308 25.248 87.4 24.538 132.386L953.4 416.958c94.134-94.136 94.134-248.178-.004-342.316zM631.042 388.934c-7.832-7.832-16.146-14.922-24.736-21.44l-79.848 79.832c9.304 5.496 18.126 12.074 26.116 20.062l4.042 4.04c51.116 51.116 51.116 134.272 0 185.388L338.486 874.95c-51.118 51.102-134.276 51.102-185.388 0l-4.042-4.042c-51.098-51.12-51.098-134.276 0-185.388l98.688-98.686c-17.134-42.306-25.246-87.402-24.538-132.386L70.604 607.046c-94.136 94.132-94.136 248.178 0 342.324l4.026 4.032c94.152 94.128 248.192 94.128 342.328 0l218.11-218.118c94.134-94.132 94.134-248.194 0-342.326l-4.026-4.024z"/></svg>