<svg class="icon" viewBox="0 0 1024 1024" xmlns="http://www.w3.org/2000/svg" width="250" height="250"><defs><style/></defs><path d="M832 896H298.667A104.533 104.533 0 01192 793.6V691.627h53.333v102.826a52.48 52.48 0 0053.334 51.2H832a52.48 52.48 0 0053.333-51.2V229.547a52.48 52.48 0 00-53.333-51.2H298.667a52.48 52.48 0 00-53.334 51.2v102.826H192V229.547A104.533 104.533 0 01298.667 128H832a104.533 104.533 0 01106.667 101.547v564.906A104.533 104.533 0 01832 896zM601.173 352a25.6 25.6 0 010-36.693 27.733 27.733 0 0137.547 0l184.32 177.066a30.293 30.293 0 010 39.254L640 708.693a27.733 27.733 0 01-37.547 0 25.173 25.173 0 010-36.266L742.4 537.6H112.213a25.6 25.6 0 110-51.2H741.12z"/></svg>