<svg class="icon" viewBox="0 0 1024 1024" xmlns="http://www.w3.org/2000/svg" width="128" height="128"><defs><style>@font-face{font-family:element-icons;src:url(chrome-extension://dkbiiofameebehokbgjmdcholafphbnl/fonts/element-icons.woff) format(&quot;woff&quot;),url(&quot;chrome-extension://dkbiiofameebehokbgjmdcholafphbnl/fonts/element-icons.ttf &quot;) format(&quot;truetype&quot;)}</style></defs><path d="M639.852 316.278C653.7 330 670.3 341.005 688.368 348.443c18.1 7.44 37.67 11.317 57.269 11.317s39.168-3.877 57.269-11.317c18.1-7.44 34.696-18.443 48.545-32.165 13.847-13.723 24.947-30.167 32.417-48.14 7.502-17.943 11.409-37.357 11.409-56.769a147.52 147.52 0 00-11.41-56.768c-7.47-17.973-18.568-34.417-32.416-48.14-13.849-13.724-30.447-24.726-48.545-32.167-18.1-7.44-37.671-11.315-57.27-11.315s-39.168 3.877-57.268 11.315c-18.068 7.44-34.668 18.443-48.516 32.167-13.847 13.724-24.945 30.167-32.448 48.14-7.503 17.912-11.378 37.357-11.378 56.768 0 19.412 3.875 38.826 11.378 56.769 7.503 17.973 18.601 34.417 32.448 48.14zm211.6 389.716c-13.849-13.723-30.447-24.695-48.545-32.133-18.1-7.441-37.671-11.316-57.27-11.316s-39.168 3.874-57.268 11.316c-18.068 7.439-34.668 18.41-48.516 32.133-13.847 13.755-24.945 30.2-32.448 48.143s-11.378 37.384-11.378 56.766c0 19.446 3.876 38.857 11.378 56.8s18.601 34.418 32.448 48.11c13.848 13.754 30.448 24.758 48.516 32.197 18.1 7.442 37.67 11.256 57.269 11.256s39.168-3.814 57.269-11.256c18.1-7.44 34.696-18.442 48.545-32.197 13.847-13.692 24.947-30.167 32.417-48.11 7.502-17.943 11.409-37.354 11.409-56.8 0-19.38-3.907-38.823-11.409-56.766-7.471-17.943-18.57-34.387-32.417-48.143zM435.444 361.26c-20.193-20.006-44.39-36.042-70.772-46.89-26.415-10.814-54.955-16.443-83.496-16.443-28.57 0-57.111 5.629-83.495 16.444-26.383 10.847-50.58 26.883-70.773 46.889-20.194 20.04-36.387 44.045-47.296 70.21-10.94 26.164-16.6 54.454-16.6 82.775 0 28.323 5.658 56.643 16.6 82.776 10.91 26.197 27.102 50.205 47.296 70.211s44.389 36.043 70.773 46.89c26.384 10.814 54.924 16.443 83.495 16.443 28.541 0 57.081-5.63 83.496-16.444 26.382-10.847 50.578-26.883 70.772-46.889 20.195-20.007 36.356-44.015 47.296-70.21 10.91-26.134 16.6-54.454 16.6-82.777 0-28.32-5.69-56.611-16.6-82.775-10.94-26.164-27.101-50.17-47.296-70.21z"/></svg>