<svg class="icon" viewBox="0 0 1024 1024" xmlns="http://www.w3.org/2000/svg" width="200" height="200"><path d="M511.098 957.257c-80.16 0-153.737-25.019-201.11-62.386-24.057 6.702-54.831 17.489-74.252 30.864-16.617 11.439-14.546 23.106-11.55 27.816 13.15 20.689 225.583 13.211 286.912 6.767v-3.061z" fill="#FAAD08"/><path d="M496.65 957.257c80.158 0 153.738-25.019 201.11-62.386 24.058 6.702 54.83 17.489 74.254 30.864 16.616 11.439 14.543 23.106 11.55 27.816-13.15 20.689-225.584 13.211-286.914 6.767v-3.061z" fill="#FAAD08"/><path d="M497.129 474.524c131.934-.876 237.669-25.783 273.497-35.34 8.54-2.28 13.11-6.364 13.11-6.364.03-1.172.542-20.952.542-31.155 0-171.832-83.152-344.492-287.637-344.503C292.157 57.173 209 229.832 209 401.665c0 10.203.516 29.983.547 31.155 0 0 3.717 3.821 10.529 5.67 33.078 8.98 140.803 35.139 276.08 36.034h.972zm363.154 145.258c-8.12-26.086-19.204-56.506-30.427-85.72 0 0-6.456-.795-9.718.148-100.71 29.205-222.773 47.818-315.792 46.695h-.962c-92.498 1.112-213.733-17.288-314.104-46.207-3.835-1.103-11.407-.635-11.407-.635-11.223 29.213-22.306 59.633-30.425 85.719-38.718 124.386-26.175 175.862-16.623 177.016 20.496 2.474 79.78-93.637 79.78-93.637 0 97.66 88.324 247.617 290.576 248.996a718.01 718.01 0 015.367 0c202.254-1.379 290.575-151.335 290.575-248.995 0 0 59.284 96.111 79.783 93.637 9.55-1.154 22.093-52.63-16.623-177.017"/><path d="M434.383 316.917c-27.9 1.24-51.745-30.106-53.24-69.956-1.518-39.877 19.858-73.207 47.764-74.454 27.875-1.224 51.703 30.109 53.218 69.974 1.527 39.877-19.853 73.2-47.742 74.436m206.67-69.956c-1.494 39.85-25.34 71.194-53.24 69.956-27.888-1.238-49.27-34.559-47.742-74.435 1.513-39.868 25.34-71.201 53.216-69.974 27.909 1.247 49.285 34.576 47.767 74.453" fill="#FFF"/><path d="M683.943 368.627C676.62 351.018 602.88 331.4 511.59 331.4h-.98c-91.29 0-165.031 19.618-172.352 37.227a6.244 6.244 0 00-.535 2.505c0 1.269.393 2.414 1.006 3.386 6.168 9.765 88.054 58.018 171.882 58.018h.98c83.827 0 165.71-48.25 171.88-58.016a6.352 6.352 0 001.003-3.395c0-.897-.2-1.736-.531-2.498" fill="#FAAD08"/><path d="M467.632 256.377c1.26 15.886-7.377 30-19.266 31.542-11.907 1.544-22.57-10.083-23.836-25.978-1.243-15.895 7.38-30.008 19.25-31.538 11.927-1.549 22.607 10.088 23.852 25.974m73.097 7.935c2.533-4.118 19.827-25.77 55.62-17.886 9.4 2.07 13.75 5.116 14.668 6.316 1.355 1.77 1.726 4.29.352 7.684-2.722 6.725-8.338 6.542-11.454 5.226-2.01-.85-26.94-15.889-49.905 6.553-1.58 1.545-4.405 2.074-7.085.242-2.678-1.834-3.786-5.553-2.196-8.135"/><path d="M504.333 584.495h-.967c-63.568.752-140.646-7.504-215.286-21.92-6.391 36.262-10.25 81.838-6.936 136.196 8.37 137.384 91.62 223.736 220.118 224.996h5.223c128.498-1.26 211.748-87.612 220.12-224.996 3.314-54.362-.547-99.938-6.94-136.203-74.654 14.423-151.745 22.684-215.332 21.927" fill="#FFF"/><path d="M323.275 577.016v137.468s64.957 12.705 130.03 3.91V591.59c-41.224-2.262-85.687-7.304-130.03-14.574" fill="#EB1C26"/><path d="M788.098 432.536s-121.98 40.387-283.743 41.539h-.962c-161.497-1.147-283.328-41.401-283.744-41.539l-40.854 106.952c102.186 32.31 228.837 53.135 324.598 51.926l.96-.002c95.768 1.216 222.4-19.61 324.6-51.924l-40.855-106.952z" fill="#EB1C26"/></svg>