<svg class="icon" viewBox="0 0 1024 1024" xmlns="http://www.w3.org/2000/svg" width="128" height="128"><defs><style>@font-face{font-family:element-icons;src:url(chrome-extension://dkbiiofameebehokbgjmdcholafphbnl/fonts/element-icons.woff) format(&quot;woff&quot;),url(&quot;chrome-extension://dkbiiofameebehokbgjmdcholafphbnl/fonts/element-icons.ttf &quot;) format(&quot;truetype&quot;)}</style></defs><path d="M934.95 655.2l-2.295-16.24-2.875-15.83-2.277-8.1-2.203-8.662-2.97-8.25-2.986-9.147-3.455-8.662-3.75-8.922-6.718-14.486-5.919-12.806-5.955-11.423-5.153-10.64-5.916-9.708-4.405-8.922-9.184-13.29-11.63-17.697-2.65-4.368-.914-1.904v-1.456l1.939-5.974 2.69-5.3 2.313-10.53 1.326-5.45v-5.599l.671-4.518v-4.518l-.671-5.188-.764-4.257-1.718-8.624-2.222-8.4-2.016-7.727-3.136-7.43-3.584-6.271-2.799-5.862-3.156-5.563-4.872-8.25-1.828-2.913-.524-2.539-2.295-15.978-1.42-10.49-1.681-13.03-2.575-13.44-4.05-15.456-2.296-8.624-1.792-7.318-2.575-8.511-2.838-9.073-2.837-8.362-3.66-9.035-7.411-17.435-4.404-8.25-5.32-9.445-5.003-8.14-4.929-9.184-7.056-8.475-5.955-8.25-7.242-8.513-7.374-7.727-7.427-7.468-8.812-7.728-4.649-2.799-4.366-3.846-9.52-6.757-11.015-7.355-11.237-6.607-11.573-6.01-12.656-5.452-11.873-5.19-12.394-4.516-13.553-3.734-12.357-3.323-13.197-2.911-12.488-3.062-13.421-1.456-13.2-1.605-13.123-1.718h-39.366l-13.308.747-12.508 1.754L478.1 67.72l-12.676 2.128-12.506 2.427-11.872 2.911-11.909 3.846-11.015 3.882-11.013 3.697-11.126 5.45-10.434 4.406-9.276 5.339-9.652 5.973-8.903 6.235-8.793 7.055-7.243 6.534-11.348 10.751-9.39 10.006-9.016 9.708-8.307 9.856-7.747 10.08-6.813 9.856-6.609 9.855-3.06 4.368-2.838 5.34-6.197 9.295-4.91 9.333-4.368 8.773-3.789 9.334-3.715 8.513-3.117 7.952-2.839 8.512-2.872 7.876-3.845 14.225-2.802 13.701-1.568 11.424-1.549 9.857v19.152l-2.687 2.948-2.483 3.995-1.924 3.584-1.661 3.846-2.09 8.4-2.278 7.69-.804 6.908-.52 5.077v5.413l-5.283 7.766-3.752 7.727-2.838 7.43-2.11 6.644-1.604 6.385-1.568 6.01v15.27l.896 3.734 1.307 6.794 1.641 5.152-2.948 2.314-8.271 6.197-10.956 10.119-6.757 6.01-6.553 5.862-4.517 4.667-3.733 4.106-7.99 8.625-7.597 8.66-5.956 7.468-7.11 10.752-6.814 9.706-6.683 10.79-5.711 9.968-4.668 10.639-5.003 9.856-3.64 9.707-3.845 10.118-2.856 9.818-2.818 10.117-2.465 8.81-1.42 9.41-1.51 8.81-1.325 8.512-.784 16.614v22.362l.784 6.795 2.09 11.535.746 5.078 1.419 5.153 1.68 4.965 1.588 3.47 2.519 6.386 1.961 1.306 1.195 2.688 1.493.634h1.548l6.591-.634 6.72-1.755 5.711-2.239 5.917-3.882 5.413-3.622 4.91-4.63 5.283-4.89 4.517-5.078 4.239-5.75 3.88-5.15 3.624-4.256 2.296-4.93 4.424-8.138 1.38-3.285.784-2.016.373-2.278 1.064-1.866.766-.373 1.53-.821h.916l.39.821h.767l.765.373 2.502 11.09 2.65 8.883 3.64 9.333 3.621 8.363 3.062 8.4 4.702 7.317 3.473 7.69 3.846 7.058 4.48 6.122 3.397 5.862 9.034 10.9 7.878 9.746 7.56 7.542 7.522 6.793 6.459 5.301 9.688 8.662 3.864 1.867 1.307 1.865v.897l-.896.821h-.411l-1.922.672-7.26.524-6.72.932-5.675.785-5.955 1.342-5.153 1.608-5.134 1.569-4.517 2.424-3.603 2.24-4.516 1.493-2.838 2.352-3.08 1.905-3.268 2.651-4.087 5.152-1.587 2.426-1.886 2.128-2.594 5.451-1.437 4.517-1.717 4.517-.354 3.996v7.466l-.748 3.695v3.772l-.914 3.732v3.285l.914 3.585.748 3.212 2.071 6.235 1.437 2.948 1.83 2.91 2.015 2.916 2.222 2.574 2.93 2.875 2.223 2.39 6.57 4.965 6.588 4.106 7.598 3.733 8.16 3.323 8.605 3.585 9.556 2.277 9.576 3.173 10.323 2.165 10.285 1.567 10.583 1.607 10.959 1.568 21.616 2.315 22.288.373h39.46l9.651-.373 8.309-.972 7.95-.673 7.524-.67 11.982-2.39 8.683-2.352 8.231-2.165 15.193-6.385 6.87-2.65 6.608-3.323 10.829-6.123 9.798-4.928 7.224-4.666 5.283-4.926 8.289.933 6.401.708 12.657.933h10.958l3.882.783 3.9 1.569 6.198 2.315 6.924 2.351 13.2 4.108 13.42 4.965 13.142 3.844 13.179 2.652 13.516 3.472 13.962 1.979 13.233 1.493 13.347 1.865 12.394 1.196 13.312.785h36.866l11.909-1.458 11.593-.523 11.236-1.865 10.325-2.277 10.302-2.277 9.93-2.39 4.09-1.195 4.573-1.457 8.605-3.472 7.67-3.545 7.17-3.733 6.701-3.92 5.955-4.482 2.353-2.424 2.819-3.286 3.564-4.406 3.94-5.451 1.435-2.8.636-2.278 1.625-2.911.671-3.21v-3.061l.785-3.025-.785-4.556-.671-3.844-1.625-4.516-1.307-3.736-2.482-4.517-2.913-4.106-2.873-3.583-3.848-3.1-7.914-6.906-8.884-6.647-8.942-5.338-9.39-5.45-21.56-10.64-5.151-3.173-1.4-1.494-.916-.933 10.342-10.49 4.516-5.19 3.717-4.78 7.243-10.527 6.83-10.79 5.769-9.556 5.506-9.186 7.28-18.33 5.675-15.308 3.79-10.788 2.165-3.584 1.324-2.912 2.26-1.754h.915l.673.372 5.525 11.089 4.945 10.64 3.472 5.973 3.603 5.153 3.566 6.42 4.575 6.236 3.862 4.404 2.315 2.389 2.313 2.129 2.111 1.606 2.015 1.494 4.387 2.239 2.334.784h3.584l2.351-.784 2.876-1.457 3.209-1.493 2.652-2.389 2.5-2.763 2.818-3.472 2.184-2.687 2.502-4.22 1.906-3.471 2.203-4.965 1.174-4.108 3.21-10.08 2.074-11.163 1.493-12.394 1.046-7.205v-20.198z"/></svg>