<svg class="icon" viewBox="0 0 1024 1024" xmlns="http://www.w3.org/2000/svg" width="200" height="200"><path d="M752.256 968.832H255.872c-112.64 0-204.032-91.392-204.032-204.032V268.416c0-112.64 91.392-204.032 204.032-204.032h496.384c112.64 0 204.032 91.392 204.032 204.032V764.8c0 112.64-91.392 204.032-204.032 204.032z" fill="#FFF"/><path d="M119.808 516.608a384.256 384.256 0 10768.512 0 384.256 384.256 0 10-768.512 0z" fill="#009CF5"/><path d="M746.112 270.464L472.448 485.12l63.104 63.104L750.08 274.56c2.304-2.688-1.28-6.144-3.968-4.096z" fill="#FF4C3A"/><path d="M262.016 762.752L535.68 548.224l-63.104-63.104L257.92 758.656c-2.176 2.688 1.28 6.144 4.096 4.096zm243.2-607.616c-3.2 0-5.888 2.56-5.888 5.888v53.504c0 3.2 2.56 5.888 5.888 5.888s5.888-2.56 5.888-5.888v-53.504c-.128-3.2-2.688-5.888-5.888-5.888zm-62.848 5.376c-3.2.512-5.376 3.584-4.736 6.784l9.344 52.736c.512 3.2 3.584 5.376 6.784 4.736 3.2-.512 5.376-3.584 4.736-6.784l-9.344-52.736c-.512-3.2-3.584-5.376-6.784-4.736zm-46.08 73.856c1.152 3.072 4.48 4.608 7.552 3.456 3.072-1.152 4.608-4.48 3.456-7.552l-18.304-50.304c-1.152-3.072-4.48-4.608-7.552-3.456-3.072 1.152-4.608 4.48-3.456 7.552l18.304 50.304zm-47.36 23.04c1.664 2.816 5.248 3.712 7.936 2.176s3.712-5.248 2.176-7.936l-26.752-46.336c-1.664-2.816-5.248-3.712-7.936-2.176-2.816 1.664-3.712 5.248-2.176 7.936l26.752 46.336zm-42.624 30.848c2.048 2.432 5.76 2.816 8.192.768 2.432-2.048 2.816-5.76.768-8.192l-34.432-40.96c-2.048-2.432-5.76-2.816-8.192-.768-2.432 2.048-2.816 5.76-.768 8.192l34.432 40.96zm-36.608 37.888c2.432 2.048 6.144 1.792 8.192-.768 2.048-2.432 1.792-6.144-.768-8.192l-40.96-34.432c-2.432-2.048-6.144-1.792-8.192.768-2.048 2.432-1.792 6.144.768 8.192l40.96 34.432zm-75.904 16.768l46.336 26.752a5.718 5.718 0 007.936-2.176c1.664-2.816.64-6.4-2.176-8.064L199.552 332.8a5.718 5.718 0 00-7.936 2.176c-1.664 2.688-.64 6.272 2.176 7.936zm-25.472 56.576l50.304 18.304c3.072 1.152 6.4-.512 7.552-3.456 1.152-3.072-.512-6.4-3.456-7.552l-50.304-18.304c-3.072-1.152-6.4.512-7.552 3.456-1.152 3.072.384 6.4 3.456 7.552zm39.552 57.856L155.136 448c-3.2-.512-6.272 1.536-6.784 4.736-.512 3.2 1.536 6.272 4.736 6.784l52.736 9.344c3.2.512 6.272-1.536 6.784-4.736.512-3.2-1.536-6.272-4.736-6.784zm-5.888 52.224H148.48c-3.2 0-5.888 2.56-5.888 5.888 0 3.2 2.56 5.888 5.888 5.888h53.504c3.2 0 5.888-2.56 5.888-5.888 0-3.2-2.56-5.888-5.888-5.888zm3.456 52.608l-52.736 9.344c-3.2.512-5.376 3.584-4.736 6.784.512 3.2 3.584 5.376 6.784 4.736l52.736-9.344c3.2-.512 5.376-3.584 4.736-6.784s-3.584-5.248-6.784-4.736zm12.416 51.2l-50.304 18.304c-3.072 1.152-4.608 4.48-3.456 7.552 1.152 3.072 4.48 4.608 7.552 3.456l50.304-18.304c3.072-1.152 4.608-4.48 3.456-7.552-1.152-3.072-4.48-4.608-7.552-3.456zm21.12 48.128l-46.336 26.752c-2.816 1.664-3.712 5.248-2.176 8.064 1.664 2.816 5.248 3.712 8.064 2.176l46.336-26.752c2.816-1.664 3.712-5.248 2.176-8.064-1.664-2.816-5.248-3.712-8.064-2.176zm29.184 43.904L227.2 739.84c-2.432 2.048-2.816 5.76-.768 8.192 2.048 2.432 5.76 2.816 8.192.768l40.96-34.432c2.432-2.048 2.816-5.76.768-8.192-1.92-2.56-5.632-2.816-8.192-.768zm36.352 38.016l-34.432 40.96c-2.048 2.432-1.792 6.144.768 8.192 2.432 2.048 6.144 1.792 8.192-.768l34.432-40.96c2.048-2.432 1.792-6.144-.768-8.192-2.304-1.92-6.016-1.664-8.192.768zm42.496 31.232l-26.752 46.336a5.718 5.718 0 002.176 7.936c2.816 1.664 6.4.64 8.064-2.176l26.752-46.336a5.718 5.718 0 00-2.176-7.936c-2.816-1.536-6.4-.64-8.064 2.176zm47.232 23.424l-18.304 50.304c-1.152 3.072.512 6.4 3.456 7.552 3.072 1.152 6.4-.512 7.552-3.456l18.304-50.304c1.152-3.072-.512-6.4-3.456-7.552-3.072-1.152-6.528.384-7.552 3.456zm45.952 74.24c3.2.512 6.272-1.536 6.784-4.736l9.344-52.736c.512-3.2-1.536-6.272-4.736-6.784-3.2-.512-6.272 1.536-6.784 4.736l-9.344 52.736c-.64 3.2 1.536 6.272 4.736 6.784zm62.72 5.76c3.2 0 5.888-2.56 5.888-5.888v-53.504c0-3.2-2.56-5.888-5.888-5.888-3.2 0-5.888 2.56-5.888 5.888v53.504c0 3.2 2.688 5.888 5.888 5.888zm46.72-62.848l9.344 52.736c.512 3.2 3.584 5.376 6.784 4.736 3.2-.512 5.376-3.584 4.736-6.784l-9.344-52.736c-.512-3.2-3.584-5.376-6.784-4.736-3.2.512-5.248 3.584-4.736 6.784zm51.2-12.416l18.304 50.304c1.152 3.072 4.48 4.608 7.552 3.456 3.072-1.152 4.608-4.48 3.456-7.552L611.84 798.72c-1.152-3.072-4.48-4.608-7.552-3.456-3.072 1.152-4.608 4.48-3.456 7.552zm48.256-21.12l26.752 46.336c1.664 2.816 5.248 3.712 8.064 2.176 2.816-1.664 3.712-5.248 2.176-8.064l-26.88-46.336c-1.664-2.816-5.248-3.712-8.064-2.176-2.816 1.664-3.712 5.248-2.048 8.064zm43.776-29.312l34.432 40.96c2.048 2.432 5.76 2.816 8.192.768 2.432-2.048 2.816-5.76.768-8.192l-34.432-40.96c-2.048-2.432-5.76-2.816-8.192-.768-2.56 2.048-2.816 5.76-.768 8.192zm38.016-36.352l40.96 34.432c2.432 2.048 6.144 1.792 8.192-.768 2.048-2.432 1.792-6.144-.768-8.192l-40.96-34.432c-2.432-2.048-6.144-1.792-8.192.768-1.92 2.432-1.664 6.144.768 8.192zm31.232-42.368l46.336 26.752c2.816 1.664 6.4.64 8.064-2.176a5.718 5.718 0 00-2.176-7.936L768 663.552c-2.816-1.664-6.4-.64-8.064 2.176-1.536 2.688-.64 6.272 2.176 7.936zm23.424-47.232l50.304 18.304c3.072 1.152 6.4-.512 7.552-3.456 1.152-3.072-.512-6.4-3.456-7.552l-50.304-18.304c-3.072-1.152-6.4.512-7.552 3.456-1.152 3.072.384 6.4 3.456 7.552zm14.72-50.56l52.736 9.344c3.2.512 6.272-1.536 6.784-4.736.512-3.2-1.536-6.272-4.736-6.784l-52.736-9.344c-3.2-.512-6.272 1.536-6.784 4.736-.512 3.2 1.536 6.272 4.736 6.784zm0-58.112c0 3.2 2.56 5.888 5.888 5.888h53.504c3.2 0 5.888-2.56 5.888-5.888 0-3.2-2.56-5.888-5.888-5.888h-53.504c-3.328 0-5.888 2.56-5.888 5.888zm2.432-46.72l52.736-9.344c3.2-.512 5.376-3.584 4.736-6.784-.512-3.2-3.584-5.376-6.784-4.736l-52.736 9.344c-3.2.512-5.376 3.584-4.736 6.784.512 3.2 3.584 5.248 6.784 4.736zm-12.416-51.2l50.304-18.304c3.072-1.152 4.608-4.48 3.456-7.552-1.152-3.072-4.48-4.608-7.552-3.456l-50.304 18.304c-3.072 1.152-4.608 4.48-3.456 7.552 1.152 2.944 4.48 4.608 7.552 3.456zm-21.12-48.256l46.336-26.752c2.816-1.664 3.712-5.248 2.176-7.936-1.664-2.816-5.248-3.712-8.064-2.176l-46.336 26.752c-2.816 1.664-3.712 5.248-2.176 8.064 1.664 2.688 5.248 3.712 8.064 2.048zm-29.312-43.776l40.96-34.432c2.432-2.048 2.816-5.76.768-8.192-2.048-2.432-5.76-2.816-8.192-.768l-40.96 34.432c-2.432 2.048-2.816 5.76-.768 8.192 2.048 2.56 5.76 2.816 8.192.768zm-36.352-38.144l34.432-40.96c2.048-2.432 1.792-6.144-.768-8.192-2.432-2.048-6.144-1.792-8.192.768l-34.432 40.96c-2.048 2.432-1.792 6.144.768 8.192 2.432 2.048 6.144 1.792 8.192-.768zM661.12 258.56l26.752-46.336a5.718 5.718 0 00-2.176-7.936c-2.816-1.664-6.4-.64-8.064 2.176L650.88 252.8a5.718 5.718 0 002.176 7.936c2.816 1.536 6.4.64 8.064-2.176zm-47.232-23.424l18.304-50.304c1.152-3.072-.512-6.4-3.456-7.552-3.072-1.152-6.4.512-7.552 3.456l-18.304 50.432c-1.152 3.072.512 6.4 3.456 7.552 3.072 1.024 6.4-.512 7.552-3.584zm-57.344-9.984c3.2.512 6.272-1.536 6.784-4.736l9.344-52.736c.512-3.2-1.536-6.272-4.736-6.784-3.2-.512-6.272 1.536-6.784 4.736l-9.344 52.736c-.512 3.2 1.536 6.144 4.736 6.784zm-283.008 65.28c2.432 2.432 6.528 2.432 8.96 0 2.432-2.432 2.432-6.528 0-8.96l-21.12-21.12c-2.432-2.432-6.528-2.432-8.96 0-2.432 2.432-2.432 6.528 0 8.96l21.12 21.12zm-35.712 43.392c2.944 2.048 6.912 1.28 8.832-1.536 2.048-2.944 1.28-6.912-1.536-8.832l-24.448-17.152c-2.944-2.048-6.912-1.28-8.832 1.536s-1.28 6.912 1.536 8.832l24.448 17.152zm-54.784 36.352l27.136 12.672c3.2 1.536 7.04.128 8.448-3.072 1.536-3.2.128-7.04-3.072-8.448l-27.136-12.672c-3.2-1.536-7.04-.128-8.448 3.072-1.536 3.2-.128 7.04 3.072 8.448zm11.648 53.504L165.76 416c-3.456-.896-6.912 1.152-7.808 4.48-.896 3.456 1.152 6.912 4.48 7.808l28.928 7.68c3.456.896 6.912-1.152 7.808-4.48.896-3.456-1.152-6.912-4.48-7.808zm-11.52 55.04l-29.824-2.56c-3.456-.256-6.656 2.304-6.912 5.76-.256 3.456 2.304 6.656 5.76 6.912l29.824 2.56c3.456.256 6.656-2.304 6.912-5.76.384-3.456-2.176-6.528-5.76-6.912zm-1.664 56.32l-29.824 2.56c-3.456.256-6.144 3.456-5.76 6.912.256 3.456 3.456 6.144 6.912 5.76l29.824-2.56c3.456-.256 6.144-3.456 5.76-6.912-.256-3.456-3.328-6.016-6.912-5.76zm9.856 55.68l-28.928 7.68c-3.456.896-5.376 4.352-4.48 7.808.896 3.456 4.352 5.376 7.808 4.48l28.928-7.68c3.456-.896 5.376-4.352 4.48-7.808-.896-3.328-4.352-5.376-7.808-4.48zm15.872 53.504l-27.136 12.672c-3.2 1.536-4.608 5.248-3.072 8.448 1.536 3.2 5.248 4.608 8.448 3.072l27.136-12.672c3.2-1.536 4.608-5.248 3.072-8.448-1.408-3.2-5.248-4.48-8.448-3.072zm26.752 49.664l-24.448 17.152c-2.944 2.048-3.584 6.016-1.536 8.832 2.048 2.944 6.016 3.584 8.832 1.536l24.448-17.152c2.944-2.048 3.584-6.016 1.536-8.832-2.048-2.944-6.016-3.584-8.832-1.536zm76.928 81.664L293.76 800c-2.048 2.944-1.28 6.912 1.536 8.832 2.944 2.048 6.912 1.28 8.832-1.536l17.152-24.448c2.048-2.944 1.28-6.912-1.536-8.832-2.816-2.048-6.912-1.408-8.832 1.536zm38.272 65.152c3.2 1.536 7.04.128 8.448-3.072l12.672-27.136c1.536-3.2.128-7.04-3.072-8.448-3.2-1.536-7.04-.128-8.448 3.072l-12.672 27.136c-1.408 3.2-.128 6.912 3.072 8.448zm58.624 22.016c3.456.896 6.912-1.152 7.808-4.48l7.68-28.928c.896-3.456-1.152-6.912-4.48-7.808-3.456-.896-6.912 1.152-7.808 4.48l-7.68 28.928c-.896 3.328 1.152 6.912 4.48 7.808zm61.568 11.392c3.456.256 6.656-2.304 6.912-5.76l2.56-29.824c.256-3.456-2.304-6.656-5.76-6.912-3.456-.256-6.656 2.304-6.912 5.76l-2.56 29.824c-.256 3.584 2.304 6.656 5.76 6.912zm53.12-34.944l2.56 29.824c.256 3.456 3.456 6.144 6.912 5.76 3.456-.256 6.144-3.456 5.76-6.912l-2.56-29.824c-.256-3.456-3.456-6.144-6.912-5.76-3.456.256-6.016 3.328-5.76 6.912zm55.68-8.192l7.68 28.928c.896 3.456 4.352 5.376 7.808 4.48 3.456-.896 5.376-4.352 4.48-7.808l-7.68-28.928c-.896-3.456-4.352-5.376-7.808-4.48-3.328.896-5.376 4.48-4.48 7.808zm53.504-17.664l12.672 27.136c1.536 3.2 5.248 4.608 8.448 3.072 3.2-1.536 4.608-5.248 3.072-8.448L643.2 807.936c-1.536-3.2-5.248-4.608-8.448-3.072-3.2 1.536-4.48 5.248-3.072 8.448zm49.664-26.624l17.152 24.448c2.048 2.944 6.016 3.584 8.832 1.536 2.944-2.048 3.584-6.016 1.536-8.832l-17.152-24.448c-2.048-2.944-6.016-3.584-8.832-1.536-2.944 1.92-3.584 5.888-1.536 8.832zm44.16-34.944l21.12 21.12c2.432 2.432 6.528 2.432 8.96 0 2.432-2.432 2.432-6.528 0-8.96l-21.12-21.12c-2.432-2.432-6.528-2.432-8.96 0-2.432 2.432-2.432 6.528 0 8.96zm37.504-41.984l24.448 17.152c2.944 2.048 6.912 1.28 8.832-1.536 2.048-2.944 1.28-6.912-1.536-8.832l-24.448-17.152c-2.944-2.048-6.912-1.28-8.832 1.536-2.048 2.816-1.408 6.784 1.536 8.832zm29.568-47.872l27.136 12.672c3.2 1.536 7.04.128 8.448-3.072 1.536-3.2.128-7.04-3.072-8.448l-27.136-12.672c-3.2-1.536-7.04-.128-8.448 3.072-1.536 3.2-.128 6.912 3.072 8.448zm20.864-52.352l28.928 7.68c3.456.896 6.912-1.152 7.808-4.48.896-3.456-1.152-6.912-4.48-7.808l-28.928-7.68c-3.456-.896-6.912 1.152-7.808 4.48-.896 3.456 1.024 6.912 4.48 7.808zm11.392-55.168l29.824 2.56c3.456.256 6.656-2.304 6.912-5.76.256-3.456-2.304-6.656-5.76-6.912l-29.824-2.56c-3.456-.256-6.656 2.304-6.912 5.76-.256 3.584 2.304 6.656 5.76 6.912zm1.792-56.192l29.824-2.56c3.456-.256 6.144-3.456 5.76-6.912-.256-3.456-3.456-6.144-6.912-5.76l-29.824 2.56c-3.456.256-6.144 3.456-5.76 6.912.256 3.456 3.328 6.016 6.912 5.76zm-8.192-55.808l28.928-7.68c3.456-.896 5.376-4.352 4.48-7.808-.896-3.456-4.352-5.376-7.808-4.48l-28.928 7.68c-3.456.896-5.376 4.352-4.48 7.808.896 3.456 4.48 5.376 7.808 4.48zm-17.664-53.376l27.136-12.672c3.2-1.536 4.608-5.248 3.072-8.448-1.536-3.2-5.248-4.608-8.448-3.072l-27.136 12.672c-3.2 1.536-4.608 5.248-3.072 8.448 1.536 3.072 5.248 4.48 8.448 3.072zm-26.624-49.664l24.448-17.152c2.944-2.048 3.584-6.016 1.536-8.832-2.048-2.944-6.016-3.584-8.832-1.536l-24.448 17.152c-2.944 2.048-3.584 6.016-1.536 8.832 1.92 2.816 5.888 3.584 8.832 1.536zm-76.928-81.664l17.152-24.448c2.048-2.944 1.28-6.912-1.536-8.832-2.944-2.048-6.912-1.28-8.832 1.536l-17.152 24.448c-2.048 2.944-1.28 6.912 1.536 8.832 2.816 2.048 6.784 1.408 8.832-1.536zm-38.272-65.152c-3.2-1.536-7.04-.128-8.448 3.072l-12.672 27.136c-1.536 3.2-.128 7.04 3.072 8.448 3.2 1.536 7.04.128 8.448-3.072l12.672-27.136c1.408-3.2 0-7.04-3.072-8.448zm-58.752-22.016c-3.456-.896-6.912 1.152-7.808 4.48l-7.68 28.928c-.896 3.456 1.152 6.912 4.48 7.808 3.456.896 6.912-1.152 7.808-4.48l7.68-28.928c1.024-3.328-1.024-6.912-4.48-7.808zm-65.28 31.104c3.456.256 6.656-2.304 6.912-5.76l2.56-29.824c.256-3.456-2.304-6.656-5.76-6.912-3.456-.256-6.656 2.304-6.912 5.76l-2.56 29.824c-.256 3.456 2.304 6.528 5.76 6.912zm-58.88-43.136c-3.456.256-6.144 3.456-5.76 6.912l2.56 29.824c.256 3.456 3.456 6.144 6.912 5.76 3.456-.256 6.144-3.456 5.76-6.912l-2.56-29.824c-.256-3.456-3.328-6.016-6.912-5.76zm-53.888 14.848c-.896-3.456-4.352-5.376-7.808-4.48-3.456.896-5.376 4.352-4.48 7.808l7.68 28.928c.896 3.456 4.352 5.376 7.808 4.48 3.456-.896 5.376-4.352 4.48-7.808l-7.68-28.928zm-45.696 46.464l-12.672-27.136c-1.536-3.2-5.248-4.608-8.448-3.072-3.2 1.536-4.608 5.248-3.072 8.448L364.8 225.28c1.536 3.2 5.248 4.608 8.448 3.072 3.2-1.536 4.608-5.376 3.2-8.576zm-60.032 34.048c2.048 2.944 6.016 3.584 8.832 1.536 2.944-2.048 3.584-6.016 1.536-8.832l-17.152-24.448c-2.048-2.944-6.016-3.584-8.832-1.536-2.944 2.048-3.584 6.016-1.536 8.832l17.152 24.448z" fill="#FFF"/></svg>