<?xml version="1.0" standalone="no"?><!DOCTYPE svg PUBLIC "-//W3C//DTD SVG 1.1//EN" "http://www.w3.org/Graphics/SVG/1.1/DTD/svg11.dtd"><svg t="1643693813173" class="icon" viewBox="0 0 1024 1024" version="1.1" xmlns="http://www.w3.org/2000/svg" p-id="2025" xmlns:xlink="http://www.w3.org/1999/xlink" width="200" height="200"><defs><style type="text/css"></style></defs><path d="M1012.707556 958.179556l-152.092445-151.978667c73.358222-85.475556 117.959111-196.238222 117.959111-317.411556C978.574222 219.278222 759.096889 0 489.301333 0S0 219.278222 0 488.789333c0 269.482667 219.505778 488.732444 489.301333 488.732445 120.746667 0 231.196444-44.145778 316.643556-116.821334l152.149333 152.007112c15.075556 15.075556 39.537778 15.075556 54.613334 0 15.075556-15.047111 15.075556-39.509333 0-54.528zM61.184 488.789333c0-235.832889 192.056889-427.690667 428.117333-427.690666s428.117333 191.857778 428.117334 427.690666-192.056889 427.662222-428.117334 427.662223S61.184 724.622222 61.184 488.789333z" p-id="2026"></path></svg>