<svg class="icon" viewBox="0 0 1024 1024" xmlns="http://www.w3.org/2000/svg" width="200" height="200"><defs><style/></defs><path d="M287.183 232.446h449.56v134.826h-449.56V232.446z" fill="#EEE82C"/><path d="M669.317 404.725H354.608a104.878 104.878 0 010-209.756h314.71a104.878 104.878 0 110 209.756zM354.608 269.9a29.954 29.954 0 000 59.908h314.71a29.954 29.954 0 100-59.908z" fill="#74B65B"/><path d="M521.19 1024a37.602 37.602 0 01-13.364-2.477L192.411 901.027C181.487 897.31 74.9 858.347 74.9 773.459V222.637c0-.706 0-1.684.124-2.737s-.124-2.019-.124-3.047C74.9 93.223 262.809 0 512.025 0S949.1 93.224 949.1 216.853c0 .805 0 1.809-.124 2.824s.124 1.858.124 2.948v550.834c0 66.732-76.999 111.59-92.443 119.877a33.898 33.898 0 01-3.926 1.857l-317.707 126.169A37.639 37.639 0 01521.19 1024zM149.83 224.346V773.46c0 23.879 44.34 48.971 68.12 57.12l303.005 115.753 301.878-119.901c24.535-13.86 51.312-39.002 51.312-52.972V224.582a51.336 51.336 0 01-.273-3.32v-2.761c0-.93.124-2.217.248-3.493C871.308 148.512 717.36 74.93 512.025 74.93S152.63 148.51 149.88 215.02c.124 1.176.198 2.34.223 3.492a50.197 50.197 0 01-.272 5.833z" fill="#74B65B"/><path d="M711.774 666.14h-399.61a37.465 37.465 0 010-74.93h399.61a37.465 37.465 0 110 74.93z" fill="#74B65B"/></svg>