<svg class="icon" viewBox="0 0 1085 1024" xmlns="http://www.w3.org/2000/svg" width="211.914" height="200"><defs><style/></defs><path d="M256 256q0-30.286-21.429-51.714t-51.714-21.429-51.714 21.429T109.714 256t21.429 51.714 51.714 21.429 51.714-21.429T256 256zm609.714 329.143q0 30.286-21.143 51.428L564 917.714q-22.286 21.143-52 21.143-30.286 0-51.429-21.143L52 508.571q-21.714-21.142-36.857-57.714T0 384V146.286q0-29.715 21.714-51.429t51.429-21.714h237.714q30.286 0 66.857 15.143T436 125.143l408.571 408q21.143 22.286 21.143 52zm219.429 0q0 30.286-21.143 51.428L783.429 917.714q-22.286 21.143-52 21.143-20.572 0-33.715-8t-30.285-25.714L936 636.57q21.143-21.142 21.143-51.428 0-29.714-21.143-52l-408.571-408q-21.715-21.714-58.286-36.857t-66.857-15.143h128q30.285 0 66.857 15.143t58.286 36.857l408.571 408q21.143 22.286 21.143 52z"/></svg>