<?xml version="1.0" standalone="no"?><!DOCTYPE svg PUBLIC "-//W3C//DTD SVG 1.1//EN" "http://www.w3.org/Graphics/SVG/1.1/DTD/svg11.dtd"><svg t="1626845771751" class="icon" viewBox="0 0 1024 1024" version="1.1" xmlns="http://www.w3.org/2000/svg" p-id="19839" xmlns:xlink="http://www.w3.org/1999/xlink" width="128" height="128"><defs><style type="text/css"></style></defs><path d="M329.142857 256q0-30.281143-21.430857-51.712t-51.712-21.430857-51.712 21.430857-21.430857 51.712 21.430857 51.712 51.712 21.430857 51.712-21.430857 21.430857-51.712zM938.861714 585.142857q0 30.281143-21.138286 51.419429l-280.576 281.161143q-22.308571 21.138286-52.004571 21.138286-30.281143 0-51.419429-21.138286l-408.576-409.161143q-21.723429-21.138286-36.864-57.709714t-15.140571-66.852571l0-237.714286q0-29.696 21.723429-51.419429t51.419429-21.723429l237.714286 0q30.281143 0 66.852571 15.140571t58.294857 36.864l408.576 407.990857q21.138286 22.308571 21.138286 52.004571z" p-id="19840"></path></svg>