<?xml version="1.0" standalone="no"?><!DOCTYPE svg PUBLIC "-//W3C//DTD SVG 1.1//EN" "http://www.w3.org/Graphics/SVG/1.1/DTD/svg11.dtd"><svg t="1613563028164" class="icon" viewBox="0 0 1024 1024" version="1.1" xmlns="http://www.w3.org/2000/svg" p-id="9500" xmlns:xlink="http://www.w3.org/1999/xlink" width="200" height="200"><defs><style type="text/css"></style></defs><path d="M287.182961 232.446353l449.559767 0 0 134.82582-449.559767 0 0-134.82582Z" fill="#EEE82C" p-id="9501"></path><path d="M669.317432 404.725166h-314.709176a104.878288 104.878288 0 0 1 0-209.756577h314.709176a104.878288 104.878288 0 1 1 0 209.756577z m-314.709176-134.82582a29.953725 29.953725 0 0 0 0 59.907449h314.709176a29.953725 29.953725 0 1 0 0-59.907449z" fill="#74B65B" p-id="9502"></path><path d="M521.189855 1024a37.601616 37.601616 0 0 1-13.363684-2.47705L192.411035 901.026863C181.487246 897.311288 74.899793 858.347295 74.899793 773.458798V222.637236c0-0.705959 0-1.684394 0.123853-2.73714s-0.123852-2.018796-0.123853-3.046772C74.899793 93.223769 262.808791 0 512.02477 0s437.075436 93.223769 437.075437 216.853324c0 0.805041 0 1.808246-0.123853 2.823837s0.123852 1.857787 0.123853 2.947689V773.458798c0 66.731721-76.999093 111.591093-92.443499 119.876825a33.898426 33.898426 0 0 1-3.926123 1.857788L535.024178 1021.361942a37.638772 37.638772 0 0 1-13.834323 2.638058zM149.830549 224.3464V773.458798c0 23.87876 44.339191 48.971274 68.11887 57.120769l303.005116 115.752537 301.878059-119.901596c24.535178-13.859094 51.312087-39.001149 51.312086-52.97171V224.58172c-0.123852-1.127058-0.222934-2.21696-0.272475-3.319247v-2.761911c0-0.928894 0.123852-2.21696 0.247705-3.49264-2.811452-66.496402-156.760096-140.077166-362.09514-140.077166S152.629616 148.51152 149.88009 215.020307c0.123852 1.176599 0.198164 2.340812 0.222935 3.492641a50.197414 50.197414 0 0 1-0.272476 5.833452z" fill="#74B65B" p-id="9503"></path><path d="M711.774066 666.140616H312.164008a37.465378 37.465378 0 0 1 0-74.930756h399.610058a37.465378 37.465378 0 1 1 0 74.930756z" fill="#74B65B" p-id="9504"></path></svg>