<?xml version="1.0" standalone="no"?><!DOCTYPE svg PUBLIC "-//W3C//DTD SVG 1.1//EN" "http://www.w3.org/Graphics/SVG/1.1/DTD/svg11.dtd"><svg t="1613640701794" class="icon" viewBox="0 0 1024 1024" version="1.1" xmlns="http://www.w3.org/2000/svg" p-id="7217" width="250" height="250" xmlns:xlink="http://www.w3.org/1999/xlink"><defs><style type="text/css"></style></defs><path d="M577.5872 569.7536m-281.4464 0a281.4464 281.4464 0 1 0 562.8928 0 281.4464 281.4464 0 1 0-562.8928 0Z" fill="#F1ACB3" p-id="7218"></path><path d="M515.7888 953.5488c-247.1424 0-448.2048-201.0624-448.2048-448.2048s201.0624-448.2048 448.2048-448.2048 448.2048 201.0624 448.2048 448.2048-201.0624 448.2048-448.2048 448.2048z m0-834.9696c-213.248 0-386.7648 173.5168-386.7648 386.7648s173.5168 386.7648 386.7648 386.7648c213.248 0 386.7648-173.5168 386.7648-386.7648s-173.5168-386.7648-386.7648-386.7648z" fill="#4F4F4F" p-id="7219"></path><path d="M687.5648 542.72h-146.3296C508.16 542.72 481.28 515.84 481.28 482.7648V269.6192c0-16.9472 13.7728-30.72 30.72-30.72s30.72 13.7728 30.72 30.72V481.28h144.8448c16.9472 0 30.72 13.7728 30.72 30.72s-13.7728 30.72-30.72 30.72z" fill="#4F4F4F" p-id="7220"></path></svg>