<svg class="icon" viewBox="0 0 1024 1024" xmlns="http://www.w3.org/2000/svg" width="200" height="200"><defs><style/></defs><path d="M25.6 512a486.4 486.4 0 10972.8 0 486.4 486.4 0 10-972.8 0z" fill="#94CFF7"/><path d="M115.2 512a396.8 396.8 0 10793.6 0 396.8 396.8 0 10-793.6 0z" fill="#E3F5FF"/><path d="M686.848 765.952a37.888 37.888 0 01-29.696-14.336L473.6 525.568V196.352a38.4 38.4 0 0176.8 0v302.08l166.4 204.8a38.4 38.4 0 01-5.632 54.016 37.888 37.888 0 01-24.32 8.704z" fill="#94CFF7"/><path d="M588.8 396.8a90.88 90.88 0 00-76.8 43.52 90.88 90.88 0 00-76.8-43.52 74.24 74.24 0 00-76.8 76.8 132.096 132.096 0 0053.76 100.608A341.248 341.248 0 00512 627.2a341.248 341.248 0 0099.84-52.48 132.096 132.096 0 0053.76-100.608 74.24 74.24 0 00-76.8-77.312z" fill="#F0A0F2"/><path d="M661.504 447.744a72.704 72.704 0 00-72.448-51.2 90.88 90.88 0 00-76.8 43.52 90.88 90.88 0 00-76.8-43.52 74.24 74.24 0 00-76.8 76.8 132.096 132.096 0 0053.76 100.608c5.888 4.608 12.032 9.216 18.176 13.312h4.608c112.128 1.536 204.8-59.648 226.304-139.52z" fill="#F5AEF4"/><path d="M384.512 447.744a8.96 8.96 0 1017.92 0 8.96 8.96 0 10-17.92 0zm-5.12 28.416c1.792-10.752 9.472-13.056 13.056-8.704s-2.56 11.264 2.304 34.56S409.6 537.6 409.6 541.44s-16.128-14.08-23.808-32.768a61.696 61.696 0 01-6.4-32.512z" fill="#FFF"/></svg>