<svg class="icon" viewBox="0 0 1024 1024" xmlns="http://www.w3.org/2000/svg" width="250" height="250"><defs><style/></defs><path d="M296.14099999999996 569.754a281.446 281.446 0 10562.893 0 281.446 281.446 0 10-562.893 0z" fill="#F1ACB3"/><path d="M515.789 953.549c-247.143 0-448.205-201.063-448.205-448.205S268.646 57.139 515.789 57.139s448.205 201.063 448.205 448.205S762.93 953.549 515.789 953.549zm0-834.97c-213.248 0-386.765 173.517-386.765 386.765s173.517 386.765 386.765 386.765 386.765-173.517 386.765-386.765-173.517-386.765-386.765-386.765z" fill="#4F4F4F"/><path d="M687.565 542.72h-146.33c-33.075 0-59.955-26.88-59.955-59.955V269.619c0-16.947 13.773-30.72 30.72-30.72s30.72 13.773 30.72 30.72V481.28h144.845c16.947 0 30.72 13.773 30.72 30.72s-13.773 30.72-30.72 30.72z" fill="#4F4F4F"/></svg>