<svg class="icon" viewBox="0 0 1041 1024" xmlns="http://www.w3.org/2000/svg" width="254.15" height="250"><defs><style/></defs><path d="M486.16 545.333h67.707c124.485 0 226.33-79.839 226.33-177.452v-190.43C780.196 79.84 678.351 0 553.866 0H486.16C361.675 0 259.83 79.84 259.83 177.452v190.43c0 97.612 101.986 177.451 226.33 177.451zM766.654 640.618a937.618 937.618 0 00-492.506 0C140.848 685.687 0 802.836 0 884.368v57.693a94.721 94.721 0 00103.96 81.391h832.882a94.721 94.721 0 00103.96-81.39v-57.694c0-81.39-140.918-198.681-274.148-243.75z" fill="#808082"/></svg>