<?xml version="1.0" standalone="no"?><!DOCTYPE svg PUBLIC "-//W3C//DTD SVG 1.1//EN" "http://www.w3.org/Graphics/SVG/1.1/DTD/svg11.dtd"><svg t="1614406395532" class="icon" viewBox="0 0 1041 1024" version="1.1" xmlns="http://www.w3.org/2000/svg" p-id="11648" xmlns:xlink="http://www.w3.org/1999/xlink" width="254.150390625" height="250"><defs><style type="text/css"></style></defs><path d="M486.159089 545.333248h67.708215c124.484374 0 226.328814-79.83927 226.328815-177.451947v-190.429354c0-97.612677-101.84444-177.451947-226.328815-177.451947h-67.708215c-124.484374 0-226.328814 79.83927-226.328814 177.451947v190.429354c0 97.612677 101.985499 177.451947 226.328814 177.451947z" fill="#808082" p-id="11649"></path><path d="M766.654476 640.618455a937.617718 937.617718 0 0 0-492.506735 0c-133.300548 45.068281-274.147741 162.217598-274.147741 243.749573v57.693042a94.720972 94.720972 0 0 0 103.960322 81.390917h832.881573a94.720972 94.720972 0 0 0 103.960322-81.390917v-57.693042c0-81.390917-140.917722-198.681293-274.147741-243.749573z" fill="#808082" p-id="11650"></path></svg>