<?xml version="1.0" standalone="no"?><!DOCTYPE svg PUBLIC "-//W3C//DTD SVG 1.1//EN" "http://www.w3.org/Graphics/SVG/1.1/DTD/svg11.dtd"><svg t="1613661383779" class="icon" viewBox="0 0 1024 1024" version="1.1" xmlns="http://www.w3.org/2000/svg" p-id="13669" width="250" height="250" xmlns:xlink="http://www.w3.org/1999/xlink"><defs><style type="text/css"></style></defs><path d="M520.823 361.23c-156.082 0-414.258 114.845-414.258 245.76 0 130.855 258.197 245.719 414.258 245.719 156.062 0 414.258-114.864 414.258-245.719 0-130.912-258.197-245.76-414.258-245.76z" fill="#CFCF5A" p-id="13670"></path><path d="M520.823 305.055c-165.239 0-470.431 124.508-470.431 301.932 0 177.381 305.172 301.891 470.431 301.891 165.239 0 470.431-124.508 470.431-301.891 0-177.423-305.193-301.932-470.431-301.932zM520.823 852.708c-156.062 0-414.258-114.864-414.258-245.719 0-130.912 258.179-245.76 414.258-245.76 156.062 0 414.258 114.845 414.258 245.76 0 130.855-258.197 245.719-414.258 245.719z" fill="#504C23" p-id="13671"></path><path d="M520.823 756.764c-81.322 0-147.451-66.131-147.451-147.451 0-81.301 66.171-147.451 147.451-147.451s147.473 66.151 147.473 147.451c0 81.322-66.191 147.451-147.473 147.451zM520.823 489.956c-65.889 0.079-119.286 53.466-119.374 119.347 0.079 65.902 53.482 119.298 119.369 119.364 65.902-0.066 119.301-53.463 119.381-119.347-0.098-65.89-53.489-119.273-119.367-119.363z" fill="#504C23" p-id="13672"></path><path d="M401.079 609.292c0 0 0 0 0 0 0 66.133 53.611 119.746 119.746 119.746 66.133 0 119.746-53.611 119.746-119.746 0 0 0 0 0 0 0 0 0 0 0 0 0-66.133-53.611-119.746-119.746-119.746-66.133 0-119.746 53.611-119.746 119.746s0 0 0 0z" fill="#FFFFFF" p-id="13673"></path><path d="M465.689 572.704c-2.578 2.8-6.261 4.55-10.354 4.55-7.763 0-14.059-6.294-14.059-14.059 0-7.763 6.294-14.059 14.059-14.059 0.001 0 0.002 0 0.003 0 2.811-3.066 5.818-5.956 9.041-8.551 2.407-1.993 5.53-3.203 8.931-3.203 7.763 0 14.059 6.294 14.059 14.059 0 4.357-1.984 8.259-5.101 10.837-2.231 1.834-4.317 3.805-6.252 5.898-2.575 2.787-6.251 4.528-10.332 4.529zM520.823 698.246c-49.102-0.054-88.891-39.85-88.935-88.949 0.403-7.442 6.533-13.323 14.042-13.323 7.502 0 13.632 5.878 14.038 13.281 0.033 33.639 27.274 60.873 60.877 60.894 0.154-0.003 0.335-0.005 0.516-0.005 7.763 0 14.059 6.294 14.059 14.059 0 7.763-6.294 14.059-14.059 14.059-0.187 0-0.374-0.002-0.561-0.006zM519.068 269.972c-0.006 0-0.023 0-0.039 0-15.484 0-28.038-12.55-28.038-28.038 0-0.021 0-0.042 0-0.061v-84.227c0 0 0 0 0 0 0-15.507 12.572-28.077 28.077-28.077 15.507 0 28.077 12.572 28.077 28.077 0 0 0 0 0 0v84.229c0 0.003 0 0.007 0 0.020 0 15.507-12.572 28.077-28.077 28.077 0 0 0 0 0 0zM357.284 279.518c-0.019 0-0.039 0-0.061 0-10.894 0-20.341-6.223-24.973-15.306l-26.098-51.824c-1.861-3.659-2.955-7.982-2.955-12.558 0-15.551 12.606-28.155 28.155-28.155 3.121 0 6.125 0.51 8.931 1.45 6.848 2.286 12.726 7.343 16.066 13.98l26.027 51.68c4.393 8.705 3.942 19.074-1.172 27.355s-14.177 13.376-23.918 13.376zM193.412 344.634c-0.022 0-0.048 0-0.075 0-8.261 0-15.681-3.586-20.791-9.285l-36.534-40.675c-4.462-4.953-7.189-11.547-7.189-18.773 0-15.516 12.578-28.094 28.094-28.094 8.288 0 15.735 3.587 20.879 9.297l36.534 40.656c4.482 4.954 7.229 11.557 7.229 18.802 0 15.507-12.572 28.077-28.077 28.077-0.021 0-0.042 0-0.062 0zM669.41 279.518c-15.514-0.002-28.090-12.579-28.090-28.095 0-4.605 1.107-8.954 3.072-12.793l25.935-51.523c4.755-9.23 14.215-15.429 25.126-15.429 4.593 0 8.926 1.099 12.755 3.047 9.089 4.663 15.306 14.13 15.306 25.047 0 4.602-1.105 8.946-3.062 12.779l-25.935 51.505c-4.722 9.244-14.179 15.463-25.085 15.463-0.005 0-0.019 0-0.025 0zM833.241 344.634c-15.514-0.001-28.094-12.579-28.094-28.095 0-7.234 2.735-13.828 7.222-18.807l36.49-40.604c5.199-6.366 13.041-10.4 21.828-10.4 15.53 0 28.119 12.588 28.119 28.119 0 7.739-3.127 14.749-8.181 19.829l-36.492 40.65c-5.121 5.727-12.531 9.316-20.783 9.316-0.037 0-0.076 0-0.116 0z" fill="#848D2F" p-id="13674"></path></svg>