<svg class="icon" viewBox="0 0 1024 1024" xmlns="http://www.w3.org/2000/svg" width="350" height="350"><defs><style/></defs><path d="M512 848.282c-262.349 0-467.558-306.586-476.16-319.488a30.694 30.694 0 010-33.792C44.442 481.894 249.651 175.514 512 175.514s467.558 306.585 476.16 319.488a30.694 30.694 0 010 33.792C979.558 541.696 774.349 848.282 512 848.282zM99.123 511.795c45.67 62.26 216.269 275.047 412.877 275.047s367.206-212.788 412.877-275.047C879.207 449.536 708.608 236.75 512 236.75S144.794 449.536 99.123 511.795z" fill="#2F4072"/><path d="M512 644.915c-73.318 0-133.12-59.801-133.12-133.12s59.802-133.12 133.12-133.12 133.12 59.802 133.12 133.12-59.802 133.12-133.12 133.12zm0-204.8c-39.526 0-71.68 32.154-71.68 71.68s32.154 71.68 71.68 71.68 71.68-32.153 71.68-71.68-32.154-71.68-71.68-71.68z" fill="#FE76FF"/></svg>