<?xml version="1.0" standalone="no"?><!DOCTYPE svg PUBLIC "-//W3C//DTD SVG 1.1//EN" "http://www.w3.org/Graphics/SVG/1.1/DTD/svg11.dtd"><svg t="1613628375170" class="icon" viewBox="0 0 1024 1024" version="1.1" xmlns="http://www.w3.org/2000/svg" p-id="34570" width="350" height="350" xmlns:xlink="http://www.w3.org/1999/xlink"><defs><style type="text/css"></style></defs><path d="M512 848.2816c-262.3488 0-467.5584-306.5856-476.16-319.488-6.7584-10.24-6.7584-23.552 0-33.792 8.6016-13.1072 213.8112-319.488 476.16-319.488s467.5584 306.5856 476.16 319.488c6.7584 10.24 6.7584 23.552 0 33.792-8.6016 12.9024-213.8112 319.488-476.16 319.488zM99.1232 511.7952C144.7936 574.0544 315.392 786.8416 512 786.8416s367.2064-212.7872 412.8768-275.0464C879.2064 449.536 708.608 236.7488 512 236.7488S144.7936 449.536 99.1232 511.7952z" fill="#2F4072" p-id="34571"></path><path d="M512 644.9152c-73.3184 0-133.12-59.8016-133.12-133.12s59.8016-133.12 133.12-133.12 133.12 59.8016 133.12 133.12-59.8016 133.12-133.12 133.12z m0-204.8c-39.5264 0-71.68 32.1536-71.68 71.68s32.1536 71.68 71.68 71.68 71.68-32.1536 71.68-71.68-32.1536-71.68-71.68-71.68z" fill="#FE76FF" p-id="34572"></path></svg>