<svg class="icon" viewBox="0 0 1024 1024" xmlns="http://www.w3.org/2000/svg" width="250" height="250"><defs><style/></defs><path d="M520.823 361.23c-156.082 0-414.258 114.845-414.258 245.76 0 130.855 258.197 245.719 414.258 245.719 156.062 0 414.258-114.864 414.258-245.719 0-130.912-258.197-245.76-414.258-245.76z" fill="#CFCF5A"/><path d="M520.823 305.055c-165.239 0-470.431 124.508-470.431 301.932 0 177.381 305.172 301.891 470.431 301.891 165.239 0 470.431-124.508 470.431-301.891 0-177.423-305.193-301.932-470.431-301.932zm0 547.653c-156.062 0-414.258-114.864-414.258-245.719 0-130.912 258.179-245.76 414.258-245.76 156.062 0 414.258 114.845 414.258 245.76 0 130.855-258.197 245.719-414.258 245.719z" fill="#504C23"/><path d="M520.823 756.764c-81.322 0-147.451-66.131-147.451-147.451 0-81.301 66.171-147.451 147.451-147.451s147.473 66.151 147.473 147.451c0 81.322-66.191 147.451-147.473 147.451zm0-266.808c-65.889.079-119.286 53.466-119.374 119.347.079 65.902 53.482 119.298 119.369 119.364 65.902-.066 119.301-53.463 119.381-119.347-.098-65.89-53.489-119.273-119.367-119.363z" fill="#504C23"/><path d="M401.079 609.292c0 66.133 53.611 119.746 119.746 119.746 66.133 0 119.746-53.611 119.746-119.746 0-66.133-53.611-119.746-119.746-119.746-66.133 0-119.746 53.611-119.746 119.746z" fill="#FFF"/><path d="M465.689 572.704a14.029 14.029 0 01-10.354 4.55c-7.763 0-14.059-6.294-14.059-14.059 0-7.763 6.294-14.059 14.059-14.059h.003c2.811-3.066 5.818-5.956 9.041-8.551a13.978 13.978 0 018.931-3.203c7.763 0 14.059 6.294 14.059 14.059 0 4.357-1.984 8.259-5.101 10.837a62.968 62.968 0 00-6.252 5.898 14.028 14.028 0 01-10.332 4.529zm55.134 125.542c-49.102-.054-88.891-39.85-88.935-88.949.403-7.442 6.533-13.323 14.042-13.323 7.502 0 13.632 5.878 14.038 13.281.033 33.639 27.274 60.873 60.877 60.894.154-.003.335-.005.516-.005 7.763 0 14.059 6.294 14.059 14.059 0 7.763-6.294 14.059-14.059 14.059-.187 0-.374-.002-.561-.006zm-1.755-428.274h-.039c-15.484 0-28.038-12.55-28.038-28.038V157.646c0-15.507 12.572-28.077 28.077-28.077 15.507 0 28.077 12.572 28.077 28.077v84.249c0 15.507-12.572 28.077-28.077 28.077zm-161.784 9.546h-.061c-10.894 0-20.341-6.223-24.973-15.306l-26.098-51.824c-1.861-3.659-2.955-7.982-2.955-12.558 0-15.551 12.606-28.155 28.155-28.155 3.121 0 6.125.51 8.931 1.45 6.848 2.286 12.726 7.343 16.066 13.98l26.027 51.68c4.393 8.705 3.942 19.074-1.172 27.355s-14.177 13.376-23.918 13.376zm-163.872 65.116h-.075c-8.261 0-15.681-3.586-20.791-9.285l-36.534-40.675a27.974 27.974 0 01-7.189-18.773c0-15.516 12.578-28.094 28.094-28.094 8.288 0 15.735 3.587 20.879 9.297l36.534 40.656a27.95 27.95 0 017.229 18.802c0 15.507-12.572 28.077-28.077 28.077h-.062zm475.998-65.116c-15.514-.002-28.09-12.579-28.09-28.095 0-4.605 1.107-8.954 3.072-12.793l25.935-51.523c4.755-9.23 14.215-15.429 25.126-15.429 4.593 0 8.926 1.099 12.755 3.047 9.089 4.663 15.306 14.13 15.306 25.047 0 4.602-1.105 8.946-3.062 12.779l-25.935 51.505c-4.722 9.244-14.179 15.463-25.085 15.463h-.025zm163.831 65.116c-15.514-.001-28.094-12.579-28.094-28.095a28.001 28.001 0 017.222-18.807l36.49-40.604c5.199-6.366 13.041-10.4 21.828-10.4 15.53 0 28.119 12.588 28.119 28.119a28.03 28.03 0 01-8.181 19.829l-36.492 40.65c-5.121 5.727-12.531 9.316-20.783 9.316h-.116z" fill="#848D2F"/></svg>