<svg class="icon" viewBox="0 0 1024 1024" xmlns="http://www.w3.org/2000/svg" width="200" height="200"><defs><style/></defs><path d="M1012.708 958.18L860.615 806.2c73.358-85.475 117.96-196.237 117.96-317.41C978.574 219.277 759.096 0 489.3 0S0 219.278 0 488.79c0 269.482 219.506 488.732 489.301 488.732 120.747 0 231.197-44.146 316.644-116.822l152.15 152.008c15.075 15.075 39.537 15.075 54.613 0 15.075-15.048 15.075-39.51 0-54.528zM61.184 488.79c0-235.834 192.057-427.691 428.117-427.691S917.42 252.956 917.42 488.789 725.362 916.452 489.3 916.452 61.184 724.622 61.184 488.789z"/></svg>